<?xml version="1.0" encoding="utf-8"?>
<svg viewBox="129.875 82.496 79.154 55.032" width="79.154" height="55.032" xmlns="http://www.w3.org/2000/svg" xmlns:bx="https://boxy-svg.com">
  <rect x="129.875" y="82.496" width="79.154" height="55.032" style="stroke-width: 5px; fill: rgba(253, 201, 13, 0); stroke: rgb(220, 187, 42);"/>
  <path d="M 190.716 108.205 L 192.468 111.77 L 195.769 109.559 L 195.503 113.523 L 199.467 113.258 L 197.256 116.558 L 200.821 118.31 L 197.256 120.062 L 199.467 123.363 L 195.503 123.097 L 195.769 127.061 L 192.468 124.85 L 190.716 128.415 L 188.964 124.85 L 185.664 127.061 L 185.929 123.097 L 181.965 123.363 L 184.176 120.062 L 180.611 118.31 L 184.176 116.558 L 181.965 113.258 L 185.929 113.523 L 185.664 109.559 L 188.964 111.77 Z" style="stroke: rgb(255, 157, 10); fill: rgb(225, 218, 32);" bx:shape="star 190.716 118.31 10.105 10.105 0.67 12 1@30dbdb1d"/>
  <path d="M 51.44610085449219 101.88349652099609 Q 49.59240085449219 101.88349652099609 48.58205085449219 100.8981965209961 Q 47.571700854492185 99.9128965209961 47.571700854492185 98.3430965209961 Q 47.571700854492185 96.9068965209961 48.281450854492185 95.5374965209961 Q 48.991200854492185 94.16809652099609 50.07670085449219 93.01579652099609 Q 50.96180085449219 92.0805965209961 52.105750854492186 91.39589652099609 Q 53.24970085449219 90.7111965209961 54.51055085449219 90.3270965209961 Q 55.771400854492185 89.94299652099609 56.97380085449219 89.94299652099609 Q 57.92570085449219 89.94299652099609 58.693900854492185 90.2018465209961 Q 59.462100854492185 90.4606965209961 59.91300085449219 91.0117965209961 Q 60.36390085449219 91.56289652099609 60.36390085449219 92.4479965209961 Q 60.36390085449219 93.23289652099609 59.98815085449219 93.90924652099609 Q 59.612400854492186 94.58559652099609 58.98615085449219 95.0865965209961 Q 58.35990085449219 95.5875965209961 57.60840085449219 95.87149652099609 Q 56.85690085449219 96.15539652099609 56.08870085449219 96.15539652099609 Q 55.086700854492186 96.15539652099609 54.40200085449219 95.6961465209961 Q 53.71730085449219 95.2368965209961 53.71730085449219 94.53549652099609 Q 53.71730085449219 93.6336965209961 54.86960085449219 92.76529652099609 Q 55.070000854492186 92.6149965209961 55.18690085449219 92.6149965209961 Q 55.27040085449219 92.6149965209961 55.27040085449219 92.6817965209961 Q 55.27040085449219 92.84879652099609 55.003200854492185 92.94899652099609 Q 54.06800085449219 93.7004965209961 54.06800085449219 94.46869652099609 Q 54.06800085449219 95.0197965209961 54.56900085449219 95.39554652099609 Q 55.070000854492186 95.77129652099609 55.821500854492186 95.77129652099609 Q 56.489500854492185 95.77129652099609 57.16585085449219 95.4873965209961 Q 57.84220085449219 95.2034965209961 58.41000085449219 94.71919652099609 Q 58.97780085449219 94.23489652099609 59.320150854492184 93.62534652099609 Q 59.66250085449219 93.01579652099609 59.66250085449219 92.3477965209961 Q 59.66250085449219 91.26229652099609 58.92770085449219 90.7612965209961 Q 58.19290085449219 90.26029652099609 57.05730085449218 90.26029652099609 Q 55.771400854492185 90.26029652099609 54.51055085449219 90.7445965209961 Q 53.24970085449219 91.22889652099609 52.147500854492186 92.0805965209961 Q 51.04530085449219 92.93229652099609 50.17690085449219 94.0344965209961 Q 48.44010085449219 96.22219652099609 48.44010085449219 98.1426965209961 Q 48.44010085449219 99.16139652099609 48.90770085449219 99.87114652099609 Q 49.37530085449219 100.58089652099609 50.20195085449219 100.9482965209961 Q 51.02860085449219 101.3156965209961 52.097400854492186 101.3156965209961 Q 53.68390085449219 101.3156965209961 55.17020085449219 100.6226465209961 Q 56.65650085449219 99.9295965209961 57.70860085449219 98.76059652099609 Q 57.992500854492185 98.4599965209961 58.126100854492186 98.4599965209961 Q 58.22630085449219 98.4599965209961 58.22630085449219 98.61029652099609 Q 58.22630085449219 98.81069652099609 58.042600854492186 98.99439652099609 Q 57.47480085449219 99.5955965209961 56.68990085449219 100.11329652099609 Q 55.90500085449219 100.63099652099609 55.011550854492185 101.0317965209961 Q 54.118100854492184 101.4325965209961 53.19960085449219 101.6580465209961 Q 52.28110085449219 101.88349652099609 51.44610085449219 101.88349652099609 Z M 60.02514284057617 101.0150965209961 Q 59.490742840576175 101.0150965209961 59.05654284057617 100.6727465209961 Q 58.622342840576174 100.33039652099609 58.622342840576174 99.7625965209961 Q 58.622342840576174 98.57689652099609 60.07524284057617 97.05719652099609 Q 61.56154284057617 95.5207965209961 62.73054284057617 95.5207965209961 Q 63.114642840576174 95.5207965209961 63.35679284057617 95.7295465209961 Q 63.59894284057617 95.93829652099609 63.59894284057617 96.2388965209961 Q 63.59894284057617 97.17409652099609 62.11264284057617 98.0758965209961 Q 60.79334284057617 98.87749652099609 59.89154284057617 98.87749652099609 Q 59.75794284057617 98.87749652099609 59.65774284057617 98.84409652099609 Q 59.407242840576174 99.2949965209961 59.407242840576174 99.7959965209961 Q 59.407242840576174 100.66439652099609 60.225542840576175 100.66439652099609 Q 61.06054284057617 100.66439652099609 62.379842840576174 99.5454965209961 Q 63.39854284057617 98.72719652099609 64.11664284057618 97.8086965209961 Q 64.26694284057618 97.60829652099609 64.38384284057616 97.60829652099609 Q 64.48404284057617 97.60829652099609 64.48404284057617 97.70849652099609 Q 64.48404284057617 97.8086965209961 64.35044284057616 97.9923965209961 Q 63.882842840576174 98.61029652099609 63.34844284057617 99.12799652099609 Q 62.81404284057617 99.6456965209961 62.19614284057617 100.07989652099609 Q 60.910242840576174 101.0150965209961 60.02514284057617 101.0150965209961 Z M 60.125342840576174 98.5100965209961 Q 60.75994284057617 98.5100965209961 61.77864284057617 97.8754965209961 Q 62.11264284057617 97.64169652099609 62.438292840576175 97.3494465209961 Q 62.76394284057617 97.05719652099609 62.97269284057617 96.7565965209961 Q 63.181442840576175 96.4559965209961 63.181442840576175 96.22219652099609 Q 63.181442840576175 96.00509652099609 62.83074284057617 96.00509652099609 Q 62.32974284057617 96.00509652099609 61.42794284057617 96.7565965209961 Q 60.993742840576175 97.12399652099609 60.59294284057617 97.55819652099609 Q 60.192142840576174 97.9923965209961 59.90824284057617 98.4766965209961 Q 60.00844284057617 98.5100965209961 60.125342840576174 98.5100965209961 Z M 66.86620780639649 100.8814965209961 Q 66.14810780639648 100.8814965209961 65.88090780639648 100.5057465209961 Q 65.61370780639649 100.12999652099609 65.61370780639649 99.4953965209961 Q 65.61370780639649 98.79399652099609 66.04790780639648 97.8253965209961 Q 66.21490780639648 97.44129652099609 66.39860780639648 97.1323465209961 Q 66.58230780639649 96.8233965209961 66.78270780639649 96.5561965209961 Q 66.71590780639649 96.5728965209961 66.66580780639649 96.5728965209961 Q 66.61570780639649 96.5728965209961 66.56560780639649 96.5728965209961 Q 66.16480780639648 96.5728965209961 65.89760780639648 96.00509652099609 L 64.66180780639648 97.60829652099609 Q 63.676507806396486 98.89419652099609 63.459407806396484 98.89419652099609 Q 63.375907806396484 98.89419652099609 63.375907806396484 98.82739652099609 Q 63.375907806396484 98.74389652099609 63.459407806396484 98.61029652099609 Q 63.509507806396485 98.5100965209961 63.659807806396486 98.3430965209961 Q 64.29440780639648 97.60829652099609 64.82880780639648 96.8901965209961 Q 65.36320780639649 96.17209652099609 65.71390780639648 95.4873965209961 Q 66.09800780639648 94.0344965209961 66.68250780639649 94.0344965209961 Q 67.06660780639649 94.0344965209961 67.06660780639649 94.38519652099609 Q 67.06660780639649 94.70249652099609 66.64910780639649 95.2201965209961 Q 66.24830780639648 95.73789652099609 66.24830780639648 95.75459652099609 Q 66.24830780639648 96.10529652099609 66.76600780639649 96.10529652099609 Q 67.06660780639649 96.10529652099609 67.43400780639648 95.88819652099609 L 67.86820780639648 95.6209965209961 Q 67.90160780639648 95.60429652099609 67.96840780639648 95.60429652099609 Q 68.16880780639649 95.60429652099609 68.31910780639649 95.77129652099609 Q 68.46940780639649 95.93829652099609 68.41930780639649 96.07189652099609 L 67.26700780639648 97.52479652099609 Q 66.19820780639648 98.89419652099609 66.19820780639648 99.7291965209961 Q 66.19820780639648 100.48069652099609 66.93300780639649 100.48069652099609 Q 67.43400780639648 100.48069652099609 68.01015780639648 100.18009652099609 Q 68.58630780639649 99.8794965209961 69.12905780639649 99.43694652099609 Q 69.67180780639649 98.99439652099609 70.03920780639649 98.57689652099609 L 70.44000780639648 98.1092965209961 Q 70.47340780639648 98.0758965209961 70.52350780639648 98.0257965209961 Q 70.57360780639648 97.9756965209961 70.60700780639648 97.9756965209961 Q 70.72390780639648 97.9756965209961 70.72390780639648 98.0925965209961 Q 70.72390780639648 98.1259965209961 70.69050780639648 98.2094965209961 Q 70.65710780639648 98.2929965209961 70.57360780639648 98.3931965209961 L 70.03920780639649 98.99439652099609 Q 69.65510780639649 99.4285965209961 69.09565780639649 99.87114652099609 Q 68.53620780639649 100.31369652099609 67.94335780639648 100.59759652099609 Q 67.35050780639648 100.8814965209961 66.86620780639649 100.8814965209961 Z M 71.07980307617187 100.8981965209961 Q 70.54540307617188 100.8981965209961 70.23645307617187 100.6393465209961 Q 69.92750307617187 100.38049652099609 69.92750307617187 99.7124965209961 Q 69.92750307617187 99.3283965209961 70.16130307617188 98.7355465209961 Q 70.39510307617188 98.1426965209961 70.74580307617188 97.45799652099609 Q 71.09650307617187 96.7732965209961 71.44720307617187 96.10529652099609 Q 71.23010307617187 96.15539652099609 71.06310307617187 96.15539652099609 Q 70.56210307617188 96.15539652099609 70.56210307617188 95.77129652099609 Q 70.56210307617188 95.5875965209961 70.70405307617187 95.4873965209961 Q 70.84600307617187 95.3871965209961 70.96290307617187 95.3704965209961 Q 70.96290307617187 95.3704965209961 71.00465307617188 95.3704965209961 Q 71.04640307617187 95.3704965209961 71.11320307617187 95.3537965209961 L 72.08180307617188 95.3537965209961 Q 72.38240307617187 94.9696965209961 72.69970307617187 94.53549652099609 Q 73.15060307617188 93.9676965209961 73.41780307617188 93.8674965209961 L 73.46790307617188 93.8674965209961 Q 73.58480307617188 93.8674965209961 73.80190307617187 93.9843965209961 Q 74.06910307617187 94.1346965209961 74.06910307617187 94.28499652099609 Q 74.06910307617187 94.50209652099609 73.26750307617188 95.4038965209961 Q 73.41780307617188 95.4205965209961 73.70170307617188 95.4205965209961 Q 73.98560307617187 95.4205965209961 74.40310307617187 95.4205965209961 Q 74.60350307617188 95.4205965209961 74.97925307617187 95.4205965209961 Q 75.35500307617187 95.4205965209961 75.76415307617188 95.41224652099609 Q 76.17330307617188 95.4038965209961 76.47390307617188 95.39554652099609 Q 76.77450307617187 95.3871965209961 76.80790307617187 95.3871965209961 Q 76.85800307617187 95.4038965209961 76.85800307617187 95.4372965209961 Q 76.85800307617187 95.5875965209961 74.88740307617188 95.83809652099609 Q 73.76850307617187 95.98839652099609 73.17565307617187 96.07189652099609 Q 72.58280307617187 96.15539652099609 72.53270307617187 96.17209652099609 Q 72.29890307617187 96.3724965209961 71.96490307617188 96.8567965209961 Q 71.63090307617188 97.34109652099609 71.29690307617187 97.9422965209961 Q 70.96290307617187 98.5434965209961 70.73745307617187 99.0862465209961 Q 70.51200307617188 99.6289965209961 70.51200307617188 99.9295965209961 Q 70.51200307617188 100.19679652099609 70.71240307617188 100.3721465209961 Q 70.91280307617187 100.54749652099609 71.36370307617187 100.54749652099609 Q 71.66430307617188 100.54749652099609 72.08180307617188 100.41389652099609 Q 72.49930307617187 100.28029652099609 72.87505307617188 100.1049465209961 Q 73.25080307617188 99.9295965209961 73.41780307617188 99.8293965209961 Q 73.85200307617187 99.5621965209961 74.37805307617188 99.1196465209961 Q 74.90410307617188 98.67709652099609 75.42180307617187 98.1092965209961 Q 75.65560307617187 97.8754965209961 75.73910307617187 97.8754965209961 Q 75.78920307617187 97.8754965209961 75.78920307617187 97.9422965209961 Q 75.78920307617187 98.0758965209961 75.53870307617187 98.3764965209961 Q 75.13790307617188 98.86079652099609 74.64525307617187 99.30334652099609 Q 74.15260307617187 99.7458965209961 73.55140307617188 100.11329652099609 Q 72.86670307617187 100.53079652099609 72.24045307617187 100.7144965209961 Q 71.61420307617188 100.8981965209961 71.07980307617187 100.8981965209961 Z M 78.69098228759766 95.0531965209961 Q 78.40708228759766 95.0531965209961 78.19833228759765 94.8694965209961 Q 77.98958228759766 94.68579652099609 77.98958228759766 94.45199652099609 Q 77.98958228759766 93.9843965209961 78.62418228759766 93.9843965209961 Q 78.85798228759765 93.9843965209961 79.09178228759765 94.1430465209961 Q 79.32558228759765 94.30169652099609 79.32558228759765 94.53549652099609 Q 79.32558228759765 94.73589652099609 79.10848228759765 94.8945465209961 Q 78.89138228759765 95.0531965209961 78.69098228759766 95.0531965209961 Z M 75.60148228759766 100.9816965209961 Q 75.23408228759766 100.9816965209961 74.99193228759766 100.7395465209961 Q 74.74978228759765 100.49739652099609 74.74978228759765 99.8794965209961 Q 74.74978228759765 99.5287965209961 74.90843228759766 99.0695465209961 Q 75.06708228759766 98.61029652099609 75.30923228759765 98.1426965209961 Q 75.55138228759766 97.67509652099609 75.78518228759765 97.30769652099609 Q 76.72038228759766 95.78799652099609 77.32158228759765 95.77129652099609 Q 77.47188228759765 95.77129652099609 77.68898228759765 95.8965465209961 Q 77.90608228759766 96.02179652099609 77.90608228759766 96.17209652099609 Q 77.90608228759766 96.17209652099609 76.63688228759766 97.8086965209961 Q 75.38438228759766 99.4285965209961 75.38438228759766 100.11329652099609 Q 75.38438228759766 100.64769652099609 75.80188228759765 100.64769652099609 Q 76.06908228759765 100.64769652099609 76.49493228759766 100.4222465209961 Q 76.92078228759766 100.19679652099609 77.38838228759765 99.8460965209961 Q 77.85598228759766 99.4953965209961 78.28183228759765 99.09459652099609 Q 78.70768228759766 98.69379652099609 78.97488228759765 98.3597965209961 Q 79.14188228759765 98.1426965209961 79.26713228759766 98.0591965209961 Q 79.39238228759766 97.9756965209961 79.42578228759766 97.9756965209961 Q 79.49258228759766 97.9756965209961 79.49258228759766 98.0758965209961 Q 79.49258228759766 98.1593965209961 79.30053228759766 98.4098965209961 Q 79.10848228759765 98.66039652099609 78.77448228759765 98.99439652099609 Q 78.37368228759766 99.3951965209961 77.88938228759766 99.8627965209961 Q 77.40508228759765 100.33039652099609 76.83728228759766 100.6560465209961 Q 76.26948228759765 100.9816965209961 75.60148228759766 100.9816965209961 Z M 75.93719171142578 104.2214965209961 Q 75.43619171142578 104.2214965209961 75.08549171142577 103.8039965209961 Q 74.73479171142579 103.38649652099609 74.71809171142579 102.9021965209961 Q 74.76819171142579 102.7017965209961 74.86839171142579 102.7017965209961 Q 74.96859171142579 102.7017965209961 74.98529171142579 102.9606465209961 Q 75.00199171142579 103.21949652099609 75.25249171142578 103.46999652099609 Q 75.50299171142578 103.7204965209961 75.75349171142578 103.7204965209961 Q 77.17299171142578 103.7204965209961 78.34199171142578 101.96699652099609 Q 78.65929171142578 101.4993965209961 79.11854171142578 100.59759652099609 Q 79.57779171142577 99.6957965209961 80.16229171142578 98.3597965209961 L 81.06409171142577 96.18879652099609 Q 79.39409171142579 96.17209652099609 79.39409171142579 95.78799652099609 Q 79.39409171142579 95.6209965209961 79.57779171142577 95.4873965209961 Q 79.71139171142578 95.3871965209961 79.82829171142578 95.3871965209961 Q 79.82829171142578 95.3871965209961 79.82829171142578 95.3871965209961 L 79.82829171142578 95.3871965209961 Q 79.84499171142578 95.3871965209961 80.23744171142579 95.39554652099609 Q 80.62989171142578 95.4038965209961 81.39809171142578 95.4205965209961 Q 83.03469171142578 91.7799965209961 84.40409171142578 91.7799965209961 Q 84.93849171142578 91.7799965209961 85.45619171142579 92.2809965209961 Q 85.58979171142578 92.4145965209961 85.58979171142578 92.63169652099609 Q 85.58979171142578 93.14939652099609 85.28919171142579 93.14939652099609 Q 85.20569171142579 93.14939652099609 85.12219171142578 93.01579652099609 Q 85.05539171142578 92.89889652099609 84.90509171142578 92.8237465209961 Q 84.75479171142578 92.74859652099609 84.62119171142578 92.74859652099609 Q 84.43749171142578 92.74859652099609 84.30389171142578 92.7736465209961 Q 84.17029171142578 92.79869652099609 83.93649171142579 92.98239652099609 Q 83.70269171142579 93.14939652099609 83.50229171142578 93.4082465209961 Q 83.30189171142578 93.6670965209961 83.18499171142578 93.8507965209961 Q 83.06809171142578 94.0344965209961 82.86769171142578 94.4269465209961 Q 82.66729171142578 94.8193965209961 82.34999171142579 95.4205965209961 L 82.55039171142577 95.4205965209961 Q 84.37069171142578 95.4205965209961 84.97189171142578 95.3704965209961 Q 85.03869171142578 95.3871965209961 85.03869171142578 95.4372965209961 Q 85.03869171142578 95.57089652099609 83.85299171142579 95.80469652099609 Q 83.38539171142578 95.87149652099609 82.93449171142578 95.95499652099609 Q 82.48359171142579 96.03849652099609 82.01599171142578 96.12199652099609 Q 81.79889171142578 96.5895965209961 81.48159171142578 97.2325465209961 Q 81.16429171142578 97.8754965209961 80.76349171142579 98.66039652099609 Q 79.97859171142578 100.12999652099609 79.47759171142579 100.9983965209961 Q 78.97659171142578 101.86679652099609 78.77619171142578 102.15069652099609 Q 77.32329171142578 104.2214965209961 75.93719171142578 104.2214965209961 Z M 86.50829171142578 95.0531965209961 Q 86.22439171142578 95.0531965209961 86.01564171142579 94.8694965209961 Q 85.80689171142578 94.68579652099609 85.80689171142578 94.45199652099609 Q 85.80689171142578 93.9843965209961 86.44149171142578 93.9843965209961 Q 86.67529171142579 93.9843965209961 86.90909171142579 94.1430465209961 Q 87.14289171142578 94.30169652099609 87.14289171142578 94.53549652099609 Q 87.14289171142578 94.73589652099609 86.92579171142577 94.8945465209961 Q 86.70869171142579 95.0531965209961 86.50829171142578 95.0531965209961 Z M 83.41879171142578 100.9816965209961 Q 83.05139171142578 100.9816965209961 82.80924171142578 100.7395465209961 Q 82.56709171142577 100.49739652099609 82.56709171142577 99.8794965209961 Q 82.56709171142577 99.7959965209961 82.57544171142578 99.72084652099609 Q 82.58379171142577 99.6456965209961 82.60049171142578 99.5788965209961 Q 82.75079171142578 98.67709652099609 83.60249171142578 97.30769652099609 Q 84.53769171142578 95.78799652099609 85.13889171142579 95.77129652099609 Q 85.28919171142579 95.77129652099609 85.50629171142577 95.8965465209961 Q 85.72339171142578 96.02179652099609 85.72339171142578 96.17209652099609 Q 85.72339171142578 96.17209652099609 84.45419171142578 97.8086965209961 Q 83.20169171142578 99.4285965209961 83.20169171142578 100.11329652099609 Q 83.20169171142578 100.64769652099609 83.61919171142578 100.64769652099609 Q 83.90309171142579 100.64769652099609 84.29554171142578 100.43059652099609 Q 84.68799171142578 100.21349652099609 85.03869171142578 99.9629965209961 Q 85.38939171142579 99.7124965209961 85.50629171142577 99.6122965209961 Q 85.95719171142578 99.2281965209961 86.24944171142579 98.9526465209961 Q 86.54169171142578 98.67709652099609 86.79219171142579 98.3597965209961 Q 86.95919171142577 98.1426965209961 87.08444171142578 98.0591965209961 Q 87.20969171142578 97.9756965209961 87.24309171142578 97.9756965209961 Q 87.30989171142578 97.9756965209961 87.30989171142578 98.0758965209961 Q 87.30989171142578 98.1593965209961 87.11784171142578 98.4098965209961 Q 86.92579171142577 98.66039652099609 86.59179171142578 98.99439652099609 Q 86.19099171142578 99.3951965209961 85.70669171142578 99.8627965209961 Q 85.22239171142579 100.33039652099609 84.65459171142578 100.6560465209961 Q 84.08679171142578 100.9816965209961 83.41879171142578 100.9816965209961 Z M 87.85603776855469 101.0150965209961 Q 87.3216377685547 101.0150965209961 86.88743776855469 100.6727465209961 Q 86.45323776855469 100.33039652099609 86.45323776855469 99.7625965209961 Q 86.45323776855469 98.57689652099609 87.90613776855469 97.05719652099609 Q 89.39243776855469 95.5207965209961 90.56143776855468 95.5207965209961 Q 90.96223776855469 95.5207965209961 91.19603776855469 95.7295465209961 Q 91.42983776855469 95.93829652099609 91.42983776855469 96.2388965209961 Q 91.42983776855469 96.6563965209961 91.22943776855469 97.0070965209961 Q 90.99563776855469 97.44129652099609 90.56143776855468 97.44129652099609 Q 90.12723776855469 97.44129652099609 90.12723776855469 97.17409652099609 Q 90.12723776855469 96.9903965209961 90.34433776855468 96.6229965209961 Q 90.57813776855468 96.2388965209961 90.57813776855468 96.22219652099609 Q 90.57813776855468 96.18879652099609 90.52803776855468 96.18879652099609 Q 90.06043776855469 96.2388965209961 89.22543776855468 96.8734965209961 Q 88.85803776855468 97.15739652099609 88.58248776855469 97.40789652099609 Q 88.30693776855469 97.65839652099609 88.13993776855469 97.8921965209961 L 87.48863776855468 98.84409652099609 Q 87.38843776855468 98.99439652099609 87.27988776855469 99.3617965209961 Q 87.1713377685547 99.7291965209961 87.1713377685547 99.9128965209961 Q 87.1713377685547 100.24689652099609 87.39678776855469 100.46399652099609 Q 87.62223776855468 100.68109652099609 87.97293776855469 100.68109652099609 Q 88.8079377685547 100.68109652099609 90.1773377685547 99.5955965209961 Q 91.27953776855469 98.72719652099609 91.94753776855468 97.8420965209961 Q 92.03103776855468 97.7418965209961 92.14793776855468 97.7418965209961 Q 92.26483776855468 97.7418965209961 92.26483776855468 97.8086965209961 Q 92.26483776855468 97.8587965209961 92.18133776855468 97.9756965209961 Q 91.26283776855469 99.19479652099609 90.02703776855469 100.07989652099609 Q 88.7077377685547 101.0150965209961 87.85603776855469 101.0150965209961 Z M 92.4332310546875 100.8814965209961 Q 92.0324310546875 100.8814965209961 91.6316310546875 100.59759652099609 Q 91.2308310546875 100.31369652099609 91.1807310546875 99.9295965209961 Q 91.0137310546875 98.64369652099609 92.8006310546875 96.8734965209961 Q 94.5708310546875 95.1032965209961 95.9903310546875 95.1032965209961 Q 96.3744310546875 95.1032965209961 96.5915310546875 95.2869965209961 Q 96.7084310546875 95.4038965209961 96.7668810546875 95.60429652099609 Q 96.8253310546875 95.80469652099609 96.8587310546875 95.80469652099609 Q 96.9255310546875 95.80469652099609 96.9756310546875 95.7796465209961 Q 97.0257310546875 95.75459652099609 97.0925310546875 95.75459652099609 Q 97.2929310546875 95.75459652099609 97.4432310546875 95.90489652099609 Q 97.5935310546875 96.05519652099609 97.6102310546875 96.17209652099609 Q 97.6269310546875 96.20549652099609 96.54143105468751 97.8253965209961 Q 95.4559310546875 99.4118965209961 95.5561310546875 99.9796965209961 Q 95.6396310546875 100.36379652099609 95.9235310546875 100.36379652099609 Q 96.7919310546875 100.36379652099609 99.0965310546875 97.49139652099609 Q 99.1466310546875 97.42459652099609 99.1967310546875 97.42459652099609 Q 99.2802310546875 97.42459652099609 99.2802310546875 97.54149652099609 Q 99.2802310546875 97.67509652099609 99.1299310546875 97.8754965209961 Q 97.0090310546875 100.7311965209961 95.8734310546875 100.7311965209961 Q 95.7231310546875 100.7311965209961 95.5895310546875 100.68109652099609 Q 94.8547310546875 100.39719652099609 94.8547310546875 99.5788965209961 Q 94.8547310546875 99.2949965209961 94.9215310546875 99.01109652099609 L 93.8861310546875 100.0130965209961 Q 93.4185310546875 100.48069652099609 93.0427810546875 100.68109652099609 Q 92.6670310546875 100.8814965209961 92.4332310546875 100.8814965209961 Z M 92.2829310546875 100.51409652099609 Q 93.2515310546875 100.51409652099609 94.9215310546875 98.3931965209961 L 96.6917310546875 95.95499652099609 Q 96.5581310546875 95.72119652099609 96.2575310546875 95.72119652099609 Q 95.2388310546875 95.72119652099609 93.5020310546875 97.35779652099609 Q 91.6984310546875 99.02779652099609 91.8821310546875 100.11329652099609 Q 91.9656310546875 100.51409652099609 92.2829310546875 100.51409652099609 Z M 99.23162802734375 100.8981965209961 Q 98.69722802734375 100.8981965209961 98.38827802734374 100.6393465209961 Q 98.07932802734375 100.38049652099609 98.07932802734375 99.7124965209961 Q 98.07932802734375 99.3283965209961 98.31312802734375 98.7355465209961 Q 98.54692802734375 98.1426965209961 98.89762802734376 97.45799652099609 Q 99.24832802734375 96.7732965209961 99.59902802734375 96.10529652099609 Q 99.38192802734375 96.15539652099609 99.21492802734375 96.15539652099609 Q 98.71392802734375 96.15539652099609 98.71392802734375 95.77129652099609 Q 98.71392802734375 95.5875965209961 98.85587802734375 95.4873965209961 Q 98.99782802734374 95.3871965209961 99.11472802734374 95.3704965209961 Q 99.11472802734374 95.3704965209961 99.15647802734375 95.3704965209961 Q 99.19822802734375 95.3704965209961 99.26502802734375 95.3537965209961 L 100.23362802734376 95.3537965209961 Q 100.53422802734374 94.9696965209961 100.85152802734375 94.53549652099609 Q 101.30242802734375 93.9676965209961 101.56962802734375 93.8674965209961 L 101.61972802734375 93.8674965209961 Q 101.73662802734376 93.8674965209961 101.95372802734374 93.9843965209961 Q 102.22092802734375 94.1346965209961 102.22092802734375 94.28499652099609 Q 102.22092802734375 94.50209652099609 101.41932802734375 95.4038965209961 Q 101.56962802734375 95.4205965209961 101.85352802734376 95.4205965209961 Q 102.13742802734374 95.4205965209961 102.55492802734375 95.4205965209961 Q 102.75532802734375 95.4205965209961 103.13107802734375 95.4205965209961 Q 103.50682802734374 95.4205965209961 103.91597802734375 95.41224652099609 Q 104.32512802734375 95.4038965209961 104.62572802734375 95.39554652099609 Q 104.92632802734374 95.3871965209961 104.95972802734374 95.3871965209961 Q 105.00982802734374 95.4038965209961 105.00982802734374 95.4372965209961 Q 105.00982802734374 95.5875965209961 103.03922802734375 95.83809652099609 Q 101.92032802734374 95.98839652099609 101.32747802734374 96.07189652099609 Q 100.73462802734375 96.15539652099609 100.68452802734375 96.17209652099609 Q 100.45072802734374 96.3724965209961 100.11672802734375 96.8567965209961 Q 99.78272802734375 97.34109652099609 99.44872802734375 97.9422965209961 Q 99.11472802734374 98.5434965209961 98.88927802734375 99.0862465209961 Q 98.66382802734375 99.6289965209961 98.66382802734375 99.9295965209961 Q 98.66382802734375 100.19679652099609 98.86422802734376 100.3721465209961 Q 99.06462802734374 100.54749652099609 99.51552802734375 100.54749652099609 Q 99.81612802734375 100.54749652099609 100.23362802734376 100.41389652099609 Q 100.65112802734374 100.28029652099609 101.02687802734376 100.1049465209961 Q 101.40262802734375 99.9295965209961 101.56962802734375 99.8293965209961 Q 102.00382802734374 99.5621965209961 102.52987802734376 99.1196465209961 Q 103.05592802734375 98.67709652099609 103.57362802734374 98.1092965209961 Q 103.80742802734375 97.8754965209961 103.89092802734375 97.8754965209961 Q 103.94102802734375 97.8754965209961 103.94102802734375 97.9422965209961 Q 103.94102802734375 98.0758965209961 103.69052802734375 98.3764965209961 Q 103.28972802734376 98.86079652099609 102.79707802734374 99.30334652099609 Q 102.30442802734375 99.7458965209961 101.70322802734376 100.11329652099609 Q 101.01852802734375 100.53079652099609 100.39227802734375 100.7144965209961 Q 99.76602802734375 100.8981965209961 99.23162802734375 100.8981965209961 Z M 104.00380723876953 101.0150965209961 Q 103.46940723876953 101.0150965209961 103.03520723876953 100.6727465209961 Q 102.60100723876953 100.33039652099609 102.60100723876953 99.7625965209961 Q 102.60100723876953 98.57689652099609 104.05390723876953 97.05719652099609 Q 105.54020723876953 95.5207965209961 106.70920723876954 95.5207965209961 Q 107.09330723876953 95.5207965209961 107.33545723876954 95.7295465209961 Q 107.57760723876953 95.93829652099609 107.57760723876953 96.2388965209961 Q 107.57760723876953 97.17409652099609 106.09130723876953 98.0758965209961 Q 104.77200723876953 98.87749652099609 103.87020723876954 98.87749652099609 Q 103.73660723876954 98.87749652099609 103.63640723876954 98.84409652099609 Q 103.38590723876953 99.2949965209961 103.38590723876953 99.7959965209961 Q 103.38590723876953 100.66439652099609 104.20420723876953 100.66439652099609 Q 105.03920723876954 100.66439652099609 106.35850723876953 99.5454965209961 Q 107.37720723876953 98.72719652099609 108.09530723876954 97.8086965209961 Q 108.24560723876954 97.60829652099609 108.36250723876952 97.60829652099609 Q 108.46270723876953 97.60829652099609 108.46270723876953 97.70849652099609 Q 108.46270723876953 97.8086965209961 108.32910723876952 97.9923965209961 Q 107.86150723876953 98.61029652099609 107.32710723876953 99.12799652099609 Q 106.79270723876954 99.6456965209961 106.17480723876953 100.07989652099609 Q 104.88890723876953 101.0150965209961 104.00380723876953 101.0150965209961 Z M 104.10400723876953 98.5100965209961 Q 104.73860723876953 98.5100965209961 105.75730723876953 97.8754965209961 Q 106.09130723876953 97.64169652099609 106.41695723876953 97.3494465209961 Q 106.74260723876954 97.05719652099609 106.95135723876953 96.7565965209961 Q 107.16010723876953 96.4559965209961 107.16010723876953 96.22219652099609 Q 107.16010723876953 96.00509652099609 106.80940723876954 96.00509652099609 Q 106.30840723876953 96.00509652099609 105.40660723876952 96.7565965209961 Q 104.97240723876953 97.12399652099609 104.57160723876953 97.55819652099609 Q 104.17080723876953 97.9923965209961 103.88690723876954 98.4766965209961 Q 103.98710723876952 98.5100965209961 104.10400723876953 98.5100965209961 Z" transform="matrix(1.0519729852676392, 0, 0, 1, 86.40428161621094, -1.3260170221328735)" style="fill: rgb(51, 51, 51); white-space: pre;"/>
  <path d="M 57.70860085449219 102.6683965209961 Q 57.04060085449218 102.6683965209961 56.564650854492186 102.13399652099609 Q 56.08870085449219 101.59959652099609 55.738000854492185 100.7645965209961 Q 55.38730085449219 99.9295965209961 55.120100854492186 99.04449652099609 Q 54.50220085449219 97.0237965209961 54.60240085449219 96.6396965209961 Q 53.617100854492186 97.9589965209961 52.899000854492186 98.8357465209961 Q 52.18090085449219 99.7124965209961 51.73000085449219 100.14669652099609 Q 49.759400854492185 102.05049652099609 47.73870085449219 102.05049652099609 Q 47.13750085449219 102.05049652099609 46.745050854492185 101.79999652099609 Q 46.35260085449219 101.54949652099609 46.35260085449219 100.9649965209961 Q 46.35260085449219 100.59759652099609 46.51960085449219 100.1717465209961 Q 46.686600854492184 99.7458965209961 46.937100854492186 99.3617965209961 Q 47.18760085449219 98.97769652099609 47.438100854492184 98.72719652099609 Q 47.98920085449219 98.1760965209961 48.356600854492186 98.1760965209961 Q 48.423400854492186 98.1760965209961 48.423400854492186 98.2094965209961 Q 48.423400854492186 98.2929965209961 48.172900854492184 98.4933965209961 Q 47.588400854492185 98.96099652099609 47.20430085449219 99.57054652099609 Q 46.820200854492185 100.18009652099609 46.820200854492185 100.68109652099609 Q 46.820200854492185 101.61629652099609 48.13950085449219 101.56619652099609 Q 50.29380085449219 101.4826965209961 54.118100854492184 96.3557965209961 Q 54.335200854492186 96.07189652099609 54.48550085449219 95.95499652099609 L 54.218300854492185 95.85479652099609 Q 54.00120085449219 95.93829652099609 53.86760085449219 95.93829652099609 Q 53.516900854492185 95.93829652099609 53.516900854492185 95.65439652099609 Q 53.516900854492185 95.2702965209961 54.03460085449219 95.1533965209961 Q 54.351900854492186 95.0698965209961 54.85290085449219 95.4372965209961 Q 55.50420085449219 94.70249652099609 56.11375085449219 94.0344965209961 Q 56.72330085449219 93.3664965209961 57.224300854492185 92.9406465209961 Q 57.72530085449219 92.5147965209961 58.025900854492185 92.5147965209961 Q 58.42670085449219 92.5147965209961 58.42670085449219 92.88219652099609 Q 58.42670085449219 93.03249652099609 58.35155085449219 93.1911465209961 Q 58.27640085449219 93.3497965209961 58.17620085449219 93.3497965209961 Q 58.076000854492186 93.3664965209961 58.076000854492186 93.24959652099609 Q 58.076000854492186 93.16609652099609 58.17620085449219 93.04919652099609 L 58.17620085449219 92.98239652099609 Q 58.17620085449219 92.88219652099609 58.109400854492186 92.83209652099609 Q 57.67520085449219 92.5481965209961 55.43740085449219 95.65439652099609 Q 55.621100854492184 95.67109652099609 55.829850854492186 95.6794465209961 Q 56.03860085449219 95.68779652099609 56.27240085449219 95.68779652099609 Q 60.146800854492184 95.68779652099609 61.11540085449219 93.6837965209961 Q 61.31580085449219 93.24959652099609 61.31580085449219 92.88219652099609 Q 61.31580085449219 92.1473965209961 60.63110085449219 91.59629652099609 Q 60.01320085449218 91.0952965209961 59.00285085449219 90.91994652099609 Q 57.992500854492185 90.7445965209961 56.99050085449219 90.7445965209961 Q 54.76940085449219 90.7445965209961 52.26440085449219 91.9636965209961 Q 49.22500085449219 93.4499965209961 49.22500085449219 95.4539965209961 Q 49.22500085449219 96.10529652099609 50.07670085449219 96.10529652099609 Q 50.86160085449219 96.10529652099609 51.84690085449219 95.4706965209961 Q 52.698600854492184 94.9028965209961 53.01590085449219 94.31839652099609 Q 53.13280085449219 94.1012965209961 53.23300085449219 94.1012965209961 Q 53.34990085449219 94.1012965209961 53.29980085449219 94.23489652099609 Q 52.98250085449219 95.1700965209961 51.88030085449219 95.83809652099609 Q 50.81150085449219 96.4893965209961 49.675900854492184 96.4893965209961 Q 48.323200854492185 96.4893965209961 48.423400854492186 95.6209965209961 Q 48.67390085449219 93.4332965209961 51.11210085449218 91.8968965209961 Q 53.533600854492185 90.3771965209961 56.95710085449219 90.3771965209961 Q 58.25970085449219 90.3771965209961 59.487150854492185 90.6109965209961 Q 60.71460085449219 90.8447965209961 61.48280085449218 91.47939652099609 Q 62.28440085449219 92.1473965209961 62.28440085449219 93.04919652099609 Q 62.28440085449219 93.4332965209961 62.10070085449219 93.8841965209961 Q 61.816800854492186 94.53549652099609 61.23230085449219 94.99474652099609 Q 60.64780085449219 95.4539965209961 59.87960085449219 95.73789652099609 Q 59.11140085449219 96.02179652099609 58.25970085449219 96.15539652099609 Q 57.40800085449219 96.2889965209961 56.606400854492186 96.2889965209961 Q 56.17220085449219 96.2889965209961 55.779750854492185 96.2555965209961 Q 55.38730085449219 96.22219652099609 55.053300854492186 96.15539652099609 Q 55.15350085449219 96.4726965209961 55.40400085449219 97.30769652099609 Q 55.654500854492184 98.1426965209961 56.03860085449219 99.4786965209961 Q 56.15550085449219 99.8460965209961 56.364250854492184 100.28029652099609 Q 56.573000854492186 100.7144965209961 56.84020085449219 101.0985965209961 Q 57.107400854492184 101.4826965209961 57.41635085449219 101.73319652099609 Q 57.72530085449219 101.98369652099609 58.042600854492186 101.98369652099609 Q 58.744000854492185 101.98369652099609 59.21160085449219 100.56419652099609 Q 59.29510085449219 100.23019652099609 59.39530085449219 100.23019652099609 Q 59.478800854492185 100.23019652099609 59.545600854492186 100.54749652099609 Q 59.562300854492186 100.59759652099609 59.562300854492186 100.68109652099609 Q 59.562300854492186 101.1152965209961 59.09470085449219 101.74989652099609 Q 58.47680085449219 102.6683965209961 57.70860085449219 102.6683965209961 Z M 60.32554857788086 100.8313965209961 Q 59.90804857788086 100.8313965209961 59.67424857788086 100.4389465209961 Q 59.44044857788086 100.0464965209961 59.44044857788086 99.6790965209961 Q 59.44044857788086 98.67709652099609 60.89334857788086 96.8734965209961 Q 62.36294857788086 95.0531965209961 63.26474857788086 95.0531965209961 Q 64.11644857788086 95.0531965209961 64.11644857788086 95.95499652099609 Q 64.11644857788086 96.08859652099609 64.09139857788085 96.2388965209961 Q 64.06634857788086 96.3891965209961 64.03294857788086 96.5561965209961 Q 64.06634857788086 96.6062965209961 64.19994857788086 96.6062965209961 Q 64.65084857788086 96.6062965209961 65.26874857788086 96.2889965209961 Q 65.25204857788086 96.5728965209961 63.94944857788086 97.10729652099609 Q 64.13314857788086 97.65839652099609 62.84724857788086 99.21149652099609 Q 61.527948577880856 100.8313965209961 60.59274857788086 100.8313965209961 Z M 60.62614857788086 100.33039652099609 Q 61.34424857788086 100.33039652099609 62.46314857788086 99.01109652099609 Q 63.54864857788086 97.72519652099609 63.54864857788086 97.15739652099609 Q 63.28144857788086 97.0070965209961 62.88064857788086 96.3891965209961 Q 62.31284857788086 96.3891965209961 61.24404857788086 97.7585965209961 Q 60.19194857788086 99.09459652099609 60.22534857788086 99.8126965209961 Q 60.24204857788086 100.33039652099609 60.62614857788086 100.33039652099609 Z M 65.01858370361329 100.8313965209961 Q 64.60108370361328 100.8313965209961 64.36728370361328 100.4389465209961 Q 64.13348370361328 100.0464965209961 64.13348370361328 99.6790965209961 Q 64.13348370361328 98.67709652099609 65.58638370361328 96.8734965209961 Q 67.05598370361328 95.0531965209961 67.95778370361329 95.0531965209961 Q 68.80948370361328 95.0531965209961 68.80948370361328 95.95499652099609 Q 68.80948370361328 96.08859652099609 68.78443370361327 96.2388965209961 Q 68.75938370361328 96.3891965209961 68.72598370361328 96.5561965209961 Q 68.75938370361328 96.6062965209961 68.89298370361328 96.6062965209961 Q 69.34388370361329 96.6062965209961 69.96178370361328 96.2889965209961 Q 69.94508370361328 96.5728965209961 68.64248370361328 97.10729652099609 Q 68.82618370361328 97.65839652099609 67.54028370361328 99.21149652099609 Q 66.22098370361329 100.8313965209961 65.28578370361328 100.8313965209961 Z M 65.31918370361328 100.33039652099609 Q 66.03728370361328 100.33039652099609 67.15618370361328 99.01109652099609 Q 68.24168370361328 97.72519652099609 68.24168370361328 97.15739652099609 Q 67.97448370361329 97.0070965209961 67.57368370361328 96.3891965209961 Q 67.00588370361328 96.3891965209961 65.93708370361328 97.7585965209961 Q 64.88498370361329 99.09459652099609 64.91838370361329 99.8126965209961 Q 64.93508370361329 100.33039652099609 65.31918370361328 100.33039652099609 Z M 70.02891501464843 100.8981965209961 Q 69.49451501464844 100.8981965209961 69.18556501464843 100.6393465209961 Q 68.87661501464844 100.38049652099609 68.87661501464844 99.7124965209961 Q 68.87661501464844 99.3283965209961 69.11041501464844 98.7355465209961 Q 69.34421501464844 98.1426965209961 69.69491501464844 97.45799652099609 Q 70.04561501464843 96.7732965209961 70.39631501464844 96.10529652099609 Q 70.17921501464843 96.15539652099609 70.01221501464843 96.15539652099609 Q 69.51121501464844 96.15539652099609 69.51121501464844 95.77129652099609 Q 69.51121501464844 95.5875965209961 69.65316501464844 95.4873965209961 Q 69.79511501464843 95.3871965209961 69.91201501464843 95.3704965209961 Q 69.91201501464843 95.3704965209961 69.95376501464844 95.3704965209961 Q 69.99551501464843 95.3704965209961 70.06231501464843 95.3537965209961 L 71.03091501464844 95.3537965209961 Q 71.33151501464843 94.9696965209961 71.64881501464843 94.53549652099609 Q 72.09971501464844 93.9676965209961 72.36691501464844 93.8674965209961 L 72.41701501464844 93.8674965209961 Q 72.53391501464844 93.8674965209961 72.75101501464843 93.9843965209961 Q 73.01821501464843 94.1346965209961 73.01821501464843 94.28499652099609 Q 73.01821501464843 94.50209652099609 72.21661501464844 95.4038965209961 Q 72.36691501464844 95.4205965209961 72.65081501464844 95.4205965209961 Q 72.93471501464843 95.4205965209961 73.35221501464844 95.4205965209961 Q 73.55261501464844 95.4205965209961 73.92836501464843 95.4205965209961 Q 74.30411501464843 95.4205965209961 74.71326501464844 95.41224652099609 Q 75.12241501464844 95.4038965209961 75.42301501464844 95.39554652099609 Q 75.72361501464843 95.3871965209961 75.75701501464843 95.3871965209961 Q 75.80711501464843 95.4038965209961 75.80711501464843 95.4372965209961 Q 75.80711501464843 95.5875965209961 73.83651501464844 95.83809652099609 Q 72.71761501464843 95.98839652099609 72.12476501464843 96.07189652099609 Q 71.53191501464843 96.15539652099609 71.48181501464843 96.17209652099609 Q 71.24801501464843 96.3724965209961 70.91401501464844 96.8567965209961 Q 70.58001501464844 97.34109652099609 70.24601501464844 97.9422965209961 Q 69.91201501464843 98.5434965209961 69.68656501464844 99.0862465209961 Q 69.46111501464844 99.6289965209961 69.46111501464844 99.9295965209961 Q 69.46111501464844 100.19679652099609 69.66151501464844 100.3721465209961 Q 69.86191501464843 100.54749652099609 70.31281501464844 100.54749652099609 Q 70.61341501464844 100.54749652099609 71.03091501464844 100.41389652099609 Q 71.44841501464843 100.28029652099609 71.82416501464844 100.1049465209961 Q 72.19991501464844 99.9295965209961 72.36691501464844 99.8293965209961 Q 72.80111501464843 99.5621965209961 73.32716501464844 99.1196465209961 Q 73.85321501464844 98.67709652099609 74.37091501464843 98.1092965209961 Q 74.60471501464843 97.8754965209961 74.68821501464843 97.8754965209961 Q 74.73831501464844 97.8754965209961 74.73831501464844 97.9422965209961 Q 74.73831501464844 98.0758965209961 74.48781501464843 98.3764965209961 Q 74.08701501464844 98.86079652099609 73.59436501464843 99.30334652099609 Q 73.10171501464843 99.7458965209961 72.50051501464844 100.11329652099609 Q 71.81581501464844 100.53079652099609 71.18956501464844 100.7144965209961 Q 70.56331501464844 100.8981965209961 70.02891501464843 100.8981965209961 Z" transform="matrix(0.9943640232086182, 0, 0, 0.8871590495109558, 97.68717193603516, 29.92115020751953)" style="fill: rgb(250, 189, 33); white-space: pre;"/>
  <path transform="matrix(0.9943640232086182, 0, 0, 0.8871590495109558, 97.68717193603516, 29.92115020751953)" style="fill: rgb(250, 189, 33); white-space: pre;"/>
</svg>