<?xml version="1.0" encoding="utf-8"?>
<svg viewBox="37.757 82.294 79.154 55.032" width="79.154" height="55.032" xmlns="http://www.w3.org/2000/svg" xmlns:bx="https://boxy-svg.com">
  <rect x="37.757" y="82.294" width="79.154" height="55.032" style="fill: rgba(216, 216, 216, 0); stroke-width: 5px; stroke: rgb(18, 98, 210);"/>
  <path d="M 98.598 108.003 L 100.35 111.568 L 103.651 109.357 L 103.385 113.321 L 107.349 113.056 L 105.138 116.356 L 108.703 118.108 L 105.138 119.86 L 107.349 123.161 L 103.385 122.895 L 103.651 126.859 L 100.35 124.648 L 98.598 128.213 L 96.846 124.648 L 93.545 126.859 L 93.811 122.895 L 89.847 123.161 L 92.058 119.86 L 88.493 118.108 L 92.058 116.356 L 89.847 113.056 L 93.811 113.321 L 93.545 109.357 L 96.846 111.568 Z" style="stroke: rgb(255, 157, 10); fill: rgb(225, 218, 32);" bx:shape="star 98.598 118.108 10.105 10.105 0.67 12 1@71563ea6"/>
  <path d="M 51.44610085449219 101.88349652099609 Q 49.59240085449219 101.88349652099609 48.58205085449219 100.8981965209961 Q 47.571700854492185 99.9128965209961 47.571700854492185 98.3430965209961 Q 47.571700854492185 96.9068965209961 48.281450854492185 95.5374965209961 Q 48.991200854492185 94.16809652099609 50.07670085449219 93.01579652099609 Q 50.96180085449219 92.0805965209961 52.105750854492186 91.39589652099609 Q 53.24970085449219 90.7111965209961 54.51055085449219 90.3270965209961 Q 55.771400854492185 89.94299652099609 56.97380085449219 89.94299652099609 Q 57.92570085449219 89.94299652099609 58.693900854492185 90.2018465209961 Q 59.462100854492185 90.4606965209961 59.91300085449219 91.0117965209961 Q 60.36390085449219 91.56289652099609 60.36390085449219 92.4479965209961 Q 60.36390085449219 93.23289652099609 59.98815085449219 93.90924652099609 Q 59.612400854492186 94.58559652099609 58.98615085449219 95.0865965209961 Q 58.35990085449219 95.5875965209961 57.60840085449219 95.87149652099609 Q 56.85690085449219 96.15539652099609 56.08870085449219 96.15539652099609 Q 55.086700854492186 96.15539652099609 54.40200085449219 95.6961465209961 Q 53.71730085449219 95.2368965209961 53.71730085449219 94.53549652099609 Q 53.71730085449219 93.6336965209961 54.86960085449219 92.76529652099609 Q 55.070000854492186 92.6149965209961 55.18690085449219 92.6149965209961 Q 55.27040085449219 92.6149965209961 55.27040085449219 92.6817965209961 Q 55.27040085449219 92.84879652099609 55.003200854492185 92.94899652099609 Q 54.06800085449219 93.7004965209961 54.06800085449219 94.46869652099609 Q 54.06800085449219 95.0197965209961 54.56900085449219 95.39554652099609 Q 55.070000854492186 95.77129652099609 55.821500854492186 95.77129652099609 Q 56.489500854492185 95.77129652099609 57.16585085449219 95.4873965209961 Q 57.84220085449219 95.2034965209961 58.41000085449219 94.71919652099609 Q 58.97780085449219 94.23489652099609 59.320150854492184 93.62534652099609 Q 59.66250085449219 93.01579652099609 59.66250085449219 92.3477965209961 Q 59.66250085449219 91.26229652099609 58.92770085449219 90.7612965209961 Q 58.19290085449219 90.26029652099609 57.05730085449218 90.26029652099609 Q 55.771400854492185 90.26029652099609 54.51055085449219 90.7445965209961 Q 53.24970085449219 91.22889652099609 52.147500854492186 92.0805965209961 Q 51.04530085449219 92.93229652099609 50.17690085449219 94.0344965209961 Q 48.44010085449219 96.22219652099609 48.44010085449219 98.1426965209961 Q 48.44010085449219 99.16139652099609 48.90770085449219 99.87114652099609 Q 49.37530085449219 100.58089652099609 50.20195085449219 100.9482965209961 Q 51.02860085449219 101.3156965209961 52.097400854492186 101.3156965209961 Q 53.68390085449219 101.3156965209961 55.17020085449219 100.6226465209961 Q 56.65650085449219 99.9295965209961 57.70860085449219 98.76059652099609 Q 57.992500854492185 98.4599965209961 58.126100854492186 98.4599965209961 Q 58.22630085449219 98.4599965209961 58.22630085449219 98.61029652099609 Q 58.22630085449219 98.81069652099609 58.042600854492186 98.99439652099609 Q 57.47480085449219 99.5955965209961 56.68990085449219 100.11329652099609 Q 55.90500085449219 100.63099652099609 55.011550854492185 101.0317965209961 Q 54.118100854492184 101.4325965209961 53.19960085449219 101.6580465209961 Q 52.28110085449219 101.88349652099609 51.44610085449219 101.88349652099609 Z M 60.02514284057617 101.0150965209961 Q 59.490742840576175 101.0150965209961 59.05654284057617 100.6727465209961 Q 58.622342840576174 100.33039652099609 58.622342840576174 99.7625965209961 Q 58.622342840576174 98.57689652099609 60.07524284057617 97.05719652099609 Q 61.56154284057617 95.5207965209961 62.73054284057617 95.5207965209961 Q 63.114642840576174 95.5207965209961 63.35679284057617 95.7295465209961 Q 63.59894284057617 95.93829652099609 63.59894284057617 96.2388965209961 Q 63.59894284057617 97.17409652099609 62.11264284057617 98.0758965209961 Q 60.79334284057617 98.87749652099609 59.89154284057617 98.87749652099609 Q 59.75794284057617 98.87749652099609 59.65774284057617 98.84409652099609 Q 59.407242840576174 99.2949965209961 59.407242840576174 99.7959965209961 Q 59.407242840576174 100.66439652099609 60.225542840576175 100.66439652099609 Q 61.06054284057617 100.66439652099609 62.379842840576174 99.5454965209961 Q 63.39854284057617 98.72719652099609 64.11664284057618 97.8086965209961 Q 64.26694284057618 97.60829652099609 64.38384284057616 97.60829652099609 Q 64.48404284057617 97.60829652099609 64.48404284057617 97.70849652099609 Q 64.48404284057617 97.8086965209961 64.35044284057616 97.9923965209961 Q 63.882842840576174 98.61029652099609 63.34844284057617 99.12799652099609 Q 62.81404284057617 99.6456965209961 62.19614284057617 100.07989652099609 Q 60.910242840576174 101.0150965209961 60.02514284057617 101.0150965209961 Z M 60.125342840576174 98.5100965209961 Q 60.75994284057617 98.5100965209961 61.77864284057617 97.8754965209961 Q 62.11264284057617 97.64169652099609 62.438292840576175 97.3494465209961 Q 62.76394284057617 97.05719652099609 62.97269284057617 96.7565965209961 Q 63.181442840576175 96.4559965209961 63.181442840576175 96.22219652099609 Q 63.181442840576175 96.00509652099609 62.83074284057617 96.00509652099609 Q 62.32974284057617 96.00509652099609 61.42794284057617 96.7565965209961 Q 60.993742840576175 97.12399652099609 60.59294284057617 97.55819652099609 Q 60.192142840576174 97.9923965209961 59.90824284057617 98.4766965209961 Q 60.00844284057617 98.5100965209961 60.125342840576174 98.5100965209961 Z M 66.86620780639649 100.8814965209961 Q 66.14810780639648 100.8814965209961 65.88090780639648 100.5057465209961 Q 65.61370780639649 100.12999652099609 65.61370780639649 99.4953965209961 Q 65.61370780639649 98.79399652099609 66.04790780639648 97.8253965209961 Q 66.21490780639648 97.44129652099609 66.39860780639648 97.1323465209961 Q 66.58230780639649 96.8233965209961 66.78270780639649 96.5561965209961 Q 66.71590780639649 96.5728965209961 66.66580780639649 96.5728965209961 Q 66.61570780639649 96.5728965209961 66.56560780639649 96.5728965209961 Q 66.16480780639648 96.5728965209961 65.89760780639648 96.00509652099609 L 64.66180780639648 97.60829652099609 Q 63.676507806396486 98.89419652099609 63.459407806396484 98.89419652099609 Q 63.375907806396484 98.89419652099609 63.375907806396484 98.82739652099609 Q 63.375907806396484 98.74389652099609 63.459407806396484 98.61029652099609 Q 63.509507806396485 98.5100965209961 63.659807806396486 98.3430965209961 Q 64.29440780639648 97.60829652099609 64.82880780639648 96.8901965209961 Q 65.36320780639649 96.17209652099609 65.71390780639648 95.4873965209961 Q 66.09800780639648 94.0344965209961 66.68250780639649 94.0344965209961 Q 67.06660780639649 94.0344965209961 67.06660780639649 94.38519652099609 Q 67.06660780639649 94.70249652099609 66.64910780639649 95.2201965209961 Q 66.24830780639648 95.73789652099609 66.24830780639648 95.75459652099609 Q 66.24830780639648 96.10529652099609 66.76600780639649 96.10529652099609 Q 67.06660780639649 96.10529652099609 67.43400780639648 95.88819652099609 L 67.86820780639648 95.6209965209961 Q 67.90160780639648 95.60429652099609 67.96840780639648 95.60429652099609 Q 68.16880780639649 95.60429652099609 68.31910780639649 95.77129652099609 Q 68.46940780639649 95.93829652099609 68.41930780639649 96.07189652099609 L 67.26700780639648 97.52479652099609 Q 66.19820780639648 98.89419652099609 66.19820780639648 99.7291965209961 Q 66.19820780639648 100.48069652099609 66.93300780639649 100.48069652099609 Q 67.43400780639648 100.48069652099609 68.01015780639648 100.18009652099609 Q 68.58630780639649 99.8794965209961 69.12905780639649 99.43694652099609 Q 69.67180780639649 98.99439652099609 70.03920780639649 98.57689652099609 L 70.44000780639648 98.1092965209961 Q 70.47340780639648 98.0758965209961 70.52350780639648 98.0257965209961 Q 70.57360780639648 97.9756965209961 70.60700780639648 97.9756965209961 Q 70.72390780639648 97.9756965209961 70.72390780639648 98.0925965209961 Q 70.72390780639648 98.1259965209961 70.69050780639648 98.2094965209961 Q 70.65710780639648 98.2929965209961 70.57360780639648 98.3931965209961 L 70.03920780639649 98.99439652099609 Q 69.65510780639649 99.4285965209961 69.09565780639649 99.87114652099609 Q 68.53620780639649 100.31369652099609 67.94335780639648 100.59759652099609 Q 67.35050780639648 100.8814965209961 66.86620780639649 100.8814965209961 Z M 71.07980307617187 100.8981965209961 Q 70.54540307617188 100.8981965209961 70.23645307617187 100.6393465209961 Q 69.92750307617187 100.38049652099609 69.92750307617187 99.7124965209961 Q 69.92750307617187 99.3283965209961 70.16130307617188 98.7355465209961 Q 70.39510307617188 98.1426965209961 70.74580307617188 97.45799652099609 Q 71.09650307617187 96.7732965209961 71.44720307617187 96.10529652099609 Q 71.23010307617187 96.15539652099609 71.06310307617187 96.15539652099609 Q 70.56210307617188 96.15539652099609 70.56210307617188 95.77129652099609 Q 70.56210307617188 95.5875965209961 70.70405307617187 95.4873965209961 Q 70.84600307617187 95.3871965209961 70.96290307617187 95.3704965209961 Q 70.96290307617187 95.3704965209961 71.00465307617188 95.3704965209961 Q 71.04640307617187 95.3704965209961 71.11320307617187 95.3537965209961 L 72.08180307617188 95.3537965209961 Q 72.38240307617187 94.9696965209961 72.69970307617187 94.53549652099609 Q 73.15060307617188 93.9676965209961 73.41780307617188 93.8674965209961 L 73.46790307617188 93.8674965209961 Q 73.58480307617188 93.8674965209961 73.80190307617187 93.9843965209961 Q 74.06910307617187 94.1346965209961 74.06910307617187 94.28499652099609 Q 74.06910307617187 94.50209652099609 73.26750307617188 95.4038965209961 Q 73.41780307617188 95.4205965209961 73.70170307617188 95.4205965209961 Q 73.98560307617187 95.4205965209961 74.40310307617187 95.4205965209961 Q 74.60350307617188 95.4205965209961 74.97925307617187 95.4205965209961 Q 75.35500307617187 95.4205965209961 75.76415307617188 95.41224652099609 Q 76.17330307617188 95.4038965209961 76.47390307617188 95.39554652099609 Q 76.77450307617187 95.3871965209961 76.80790307617187 95.3871965209961 Q 76.85800307617187 95.4038965209961 76.85800307617187 95.4372965209961 Q 76.85800307617187 95.5875965209961 74.88740307617188 95.83809652099609 Q 73.76850307617187 95.98839652099609 73.17565307617187 96.07189652099609 Q 72.58280307617187 96.15539652099609 72.53270307617187 96.17209652099609 Q 72.29890307617187 96.3724965209961 71.96490307617188 96.8567965209961 Q 71.63090307617188 97.34109652099609 71.29690307617187 97.9422965209961 Q 70.96290307617187 98.5434965209961 70.73745307617187 99.0862465209961 Q 70.51200307617188 99.6289965209961 70.51200307617188 99.9295965209961 Q 70.51200307617188 100.19679652099609 70.71240307617188 100.3721465209961 Q 70.91280307617187 100.54749652099609 71.36370307617187 100.54749652099609 Q 71.66430307617188 100.54749652099609 72.08180307617188 100.41389652099609 Q 72.49930307617187 100.28029652099609 72.87505307617188 100.1049465209961 Q 73.25080307617188 99.9295965209961 73.41780307617188 99.8293965209961 Q 73.85200307617187 99.5621965209961 74.37805307617188 99.1196465209961 Q 74.90410307617188 98.67709652099609 75.42180307617187 98.1092965209961 Q 75.65560307617187 97.8754965209961 75.73910307617187 97.8754965209961 Q 75.78920307617187 97.8754965209961 75.78920307617187 97.9422965209961 Q 75.78920307617187 98.0758965209961 75.53870307617187 98.3764965209961 Q 75.13790307617188 98.86079652099609 74.64525307617187 99.30334652099609 Q 74.15260307617187 99.7458965209961 73.55140307617188 100.11329652099609 Q 72.86670307617187 100.53079652099609 72.24045307617187 100.7144965209961 Q 71.61420307617188 100.8981965209961 71.07980307617187 100.8981965209961 Z M 78.69098228759766 95.0531965209961 Q 78.40708228759766 95.0531965209961 78.19833228759765 94.8694965209961 Q 77.98958228759766 94.68579652099609 77.98958228759766 94.45199652099609 Q 77.98958228759766 93.9843965209961 78.62418228759766 93.9843965209961 Q 78.85798228759765 93.9843965209961 79.09178228759765 94.1430465209961 Q 79.32558228759765 94.30169652099609 79.32558228759765 94.53549652099609 Q 79.32558228759765 94.73589652099609 79.10848228759765 94.8945465209961 Q 78.89138228759765 95.0531965209961 78.69098228759766 95.0531965209961 Z M 75.60148228759766 100.9816965209961 Q 75.23408228759766 100.9816965209961 74.99193228759766 100.7395465209961 Q 74.74978228759765 100.49739652099609 74.74978228759765 99.8794965209961 Q 74.74978228759765 99.5287965209961 74.90843228759766 99.0695465209961 Q 75.06708228759766 98.61029652099609 75.30923228759765 98.1426965209961 Q 75.55138228759766 97.67509652099609 75.78518228759765 97.30769652099609 Q 76.72038228759766 95.78799652099609 77.32158228759765 95.77129652099609 Q 77.47188228759765 95.77129652099609 77.68898228759765 95.8965465209961 Q 77.90608228759766 96.02179652099609 77.90608228759766 96.17209652099609 Q 77.90608228759766 96.17209652099609 76.63688228759766 97.8086965209961 Q 75.38438228759766 99.4285965209961 75.38438228759766 100.11329652099609 Q 75.38438228759766 100.64769652099609 75.80188228759765 100.64769652099609 Q 76.06908228759765 100.64769652099609 76.49493228759766 100.4222465209961 Q 76.92078228759766 100.19679652099609 77.38838228759765 99.8460965209961 Q 77.85598228759766 99.4953965209961 78.28183228759765 99.09459652099609 Q 78.70768228759766 98.69379652099609 78.97488228759765 98.3597965209961 Q 79.14188228759765 98.1426965209961 79.26713228759766 98.0591965209961 Q 79.39238228759766 97.9756965209961 79.42578228759766 97.9756965209961 Q 79.49258228759766 97.9756965209961 79.49258228759766 98.0758965209961 Q 79.49258228759766 98.1593965209961 79.30053228759766 98.4098965209961 Q 79.10848228759765 98.66039652099609 78.77448228759765 98.99439652099609 Q 78.37368228759766 99.3951965209961 77.88938228759766 99.8627965209961 Q 77.40508228759765 100.33039652099609 76.83728228759766 100.6560465209961 Q 76.26948228759765 100.9816965209961 75.60148228759766 100.9816965209961 Z M 75.93719171142578 104.2214965209961 Q 75.43619171142578 104.2214965209961 75.08549171142577 103.8039965209961 Q 74.73479171142579 103.38649652099609 74.71809171142579 102.9021965209961 Q 74.76819171142579 102.7017965209961 74.86839171142579 102.7017965209961 Q 74.96859171142579 102.7017965209961 74.98529171142579 102.9606465209961 Q 75.00199171142579 103.21949652099609 75.25249171142578 103.46999652099609 Q 75.50299171142578 103.7204965209961 75.75349171142578 103.7204965209961 Q 77.17299171142578 103.7204965209961 78.34199171142578 101.96699652099609 Q 78.65929171142578 101.4993965209961 79.11854171142578 100.59759652099609 Q 79.57779171142577 99.6957965209961 80.16229171142578 98.3597965209961 L 81.06409171142577 96.18879652099609 Q 79.39409171142579 96.17209652099609 79.39409171142579 95.78799652099609 Q 79.39409171142579 95.6209965209961 79.57779171142577 95.4873965209961 Q 79.71139171142578 95.3871965209961 79.82829171142578 95.3871965209961 Q 79.82829171142578 95.3871965209961 79.82829171142578 95.3871965209961 L 79.82829171142578 95.3871965209961 Q 79.84499171142578 95.3871965209961 80.23744171142579 95.39554652099609 Q 80.62989171142578 95.4038965209961 81.39809171142578 95.4205965209961 Q 83.03469171142578 91.7799965209961 84.40409171142578 91.7799965209961 Q 84.93849171142578 91.7799965209961 85.45619171142579 92.2809965209961 Q 85.58979171142578 92.4145965209961 85.58979171142578 92.63169652099609 Q 85.58979171142578 93.14939652099609 85.28919171142579 93.14939652099609 Q 85.20569171142579 93.14939652099609 85.12219171142578 93.01579652099609 Q 85.05539171142578 92.89889652099609 84.90509171142578 92.8237465209961 Q 84.75479171142578 92.74859652099609 84.62119171142578 92.74859652099609 Q 84.43749171142578 92.74859652099609 84.30389171142578 92.7736465209961 Q 84.17029171142578 92.79869652099609 83.93649171142579 92.98239652099609 Q 83.70269171142579 93.14939652099609 83.50229171142578 93.4082465209961 Q 83.30189171142578 93.6670965209961 83.18499171142578 93.8507965209961 Q 83.06809171142578 94.0344965209961 82.86769171142578 94.4269465209961 Q 82.66729171142578 94.8193965209961 82.34999171142579 95.4205965209961 L 82.55039171142577 95.4205965209961 Q 84.37069171142578 95.4205965209961 84.97189171142578 95.3704965209961 Q 85.03869171142578 95.3871965209961 85.03869171142578 95.4372965209961 Q 85.03869171142578 95.57089652099609 83.85299171142579 95.80469652099609 Q 83.38539171142578 95.87149652099609 82.93449171142578 95.95499652099609 Q 82.48359171142579 96.03849652099609 82.01599171142578 96.12199652099609 Q 81.79889171142578 96.5895965209961 81.48159171142578 97.2325465209961 Q 81.16429171142578 97.8754965209961 80.76349171142579 98.66039652099609 Q 79.97859171142578 100.12999652099609 79.47759171142579 100.9983965209961 Q 78.97659171142578 101.86679652099609 78.77619171142578 102.15069652099609 Q 77.32329171142578 104.2214965209961 75.93719171142578 104.2214965209961 Z M 86.50829171142578 95.0531965209961 Q 86.22439171142578 95.0531965209961 86.01564171142579 94.8694965209961 Q 85.80689171142578 94.68579652099609 85.80689171142578 94.45199652099609 Q 85.80689171142578 93.9843965209961 86.44149171142578 93.9843965209961 Q 86.67529171142579 93.9843965209961 86.90909171142579 94.1430465209961 Q 87.14289171142578 94.30169652099609 87.14289171142578 94.53549652099609 Q 87.14289171142578 94.73589652099609 86.92579171142577 94.8945465209961 Q 86.70869171142579 95.0531965209961 86.50829171142578 95.0531965209961 Z M 83.41879171142578 100.9816965209961 Q 83.05139171142578 100.9816965209961 82.80924171142578 100.7395465209961 Q 82.56709171142577 100.49739652099609 82.56709171142577 99.8794965209961 Q 82.56709171142577 99.7959965209961 82.57544171142578 99.72084652099609 Q 82.58379171142577 99.6456965209961 82.60049171142578 99.5788965209961 Q 82.75079171142578 98.67709652099609 83.60249171142578 97.30769652099609 Q 84.53769171142578 95.78799652099609 85.13889171142579 95.77129652099609 Q 85.28919171142579 95.77129652099609 85.50629171142577 95.8965465209961 Q 85.72339171142578 96.02179652099609 85.72339171142578 96.17209652099609 Q 85.72339171142578 96.17209652099609 84.45419171142578 97.8086965209961 Q 83.20169171142578 99.4285965209961 83.20169171142578 100.11329652099609 Q 83.20169171142578 100.64769652099609 83.61919171142578 100.64769652099609 Q 83.90309171142579 100.64769652099609 84.29554171142578 100.43059652099609 Q 84.68799171142578 100.21349652099609 85.03869171142578 99.9629965209961 Q 85.38939171142579 99.7124965209961 85.50629171142577 99.6122965209961 Q 85.95719171142578 99.2281965209961 86.24944171142579 98.9526465209961 Q 86.54169171142578 98.67709652099609 86.79219171142579 98.3597965209961 Q 86.95919171142577 98.1426965209961 87.08444171142578 98.0591965209961 Q 87.20969171142578 97.9756965209961 87.24309171142578 97.9756965209961 Q 87.30989171142578 97.9756965209961 87.30989171142578 98.0758965209961 Q 87.30989171142578 98.1593965209961 87.11784171142578 98.4098965209961 Q 86.92579171142577 98.66039652099609 86.59179171142578 98.99439652099609 Q 86.19099171142578 99.3951965209961 85.70669171142578 99.8627965209961 Q 85.22239171142579 100.33039652099609 84.65459171142578 100.6560465209961 Q 84.08679171142578 100.9816965209961 83.41879171142578 100.9816965209961 Z M 87.85603776855469 101.0150965209961 Q 87.3216377685547 101.0150965209961 86.88743776855469 100.6727465209961 Q 86.45323776855469 100.33039652099609 86.45323776855469 99.7625965209961 Q 86.45323776855469 98.57689652099609 87.90613776855469 97.05719652099609 Q 89.39243776855469 95.5207965209961 90.56143776855468 95.5207965209961 Q 90.96223776855469 95.5207965209961 91.19603776855469 95.7295465209961 Q 91.42983776855469 95.93829652099609 91.42983776855469 96.2388965209961 Q 91.42983776855469 96.6563965209961 91.22943776855469 97.0070965209961 Q 90.99563776855469 97.44129652099609 90.56143776855468 97.44129652099609 Q 90.12723776855469 97.44129652099609 90.12723776855469 97.17409652099609 Q 90.12723776855469 96.9903965209961 90.34433776855468 96.6229965209961 Q 90.57813776855468 96.2388965209961 90.57813776855468 96.22219652099609 Q 90.57813776855468 96.18879652099609 90.52803776855468 96.18879652099609 Q 90.06043776855469 96.2388965209961 89.22543776855468 96.8734965209961 Q 88.85803776855468 97.15739652099609 88.58248776855469 97.40789652099609 Q 88.30693776855469 97.65839652099609 88.13993776855469 97.8921965209961 L 87.48863776855468 98.84409652099609 Q 87.38843776855468 98.99439652099609 87.27988776855469 99.3617965209961 Q 87.1713377685547 99.7291965209961 87.1713377685547 99.9128965209961 Q 87.1713377685547 100.24689652099609 87.39678776855469 100.46399652099609 Q 87.62223776855468 100.68109652099609 87.97293776855469 100.68109652099609 Q 88.8079377685547 100.68109652099609 90.1773377685547 99.5955965209961 Q 91.27953776855469 98.72719652099609 91.94753776855468 97.8420965209961 Q 92.03103776855468 97.7418965209961 92.14793776855468 97.7418965209961 Q 92.26483776855468 97.7418965209961 92.26483776855468 97.8086965209961 Q 92.26483776855468 97.8587965209961 92.18133776855468 97.9756965209961 Q 91.26283776855469 99.19479652099609 90.02703776855469 100.07989652099609 Q 88.7077377685547 101.0150965209961 87.85603776855469 101.0150965209961 Z M 92.4332310546875 100.8814965209961 Q 92.0324310546875 100.8814965209961 91.6316310546875 100.59759652099609 Q 91.2308310546875 100.31369652099609 91.1807310546875 99.9295965209961 Q 91.0137310546875 98.64369652099609 92.8006310546875 96.8734965209961 Q 94.5708310546875 95.1032965209961 95.9903310546875 95.1032965209961 Q 96.3744310546875 95.1032965209961 96.5915310546875 95.2869965209961 Q 96.7084310546875 95.4038965209961 96.7668810546875 95.60429652099609 Q 96.8253310546875 95.80469652099609 96.8587310546875 95.80469652099609 Q 96.9255310546875 95.80469652099609 96.9756310546875 95.7796465209961 Q 97.0257310546875 95.75459652099609 97.0925310546875 95.75459652099609 Q 97.2929310546875 95.75459652099609 97.4432310546875 95.90489652099609 Q 97.5935310546875 96.05519652099609 97.6102310546875 96.17209652099609 Q 97.6269310546875 96.20549652099609 96.54143105468751 97.8253965209961 Q 95.4559310546875 99.4118965209961 95.5561310546875 99.9796965209961 Q 95.6396310546875 100.36379652099609 95.9235310546875 100.36379652099609 Q 96.7919310546875 100.36379652099609 99.0965310546875 97.49139652099609 Q 99.1466310546875 97.42459652099609 99.1967310546875 97.42459652099609 Q 99.2802310546875 97.42459652099609 99.2802310546875 97.54149652099609 Q 99.2802310546875 97.67509652099609 99.1299310546875 97.8754965209961 Q 97.0090310546875 100.7311965209961 95.8734310546875 100.7311965209961 Q 95.7231310546875 100.7311965209961 95.5895310546875 100.68109652099609 Q 94.8547310546875 100.39719652099609 94.8547310546875 99.5788965209961 Q 94.8547310546875 99.2949965209961 94.9215310546875 99.01109652099609 L 93.8861310546875 100.0130965209961 Q 93.4185310546875 100.48069652099609 93.0427810546875 100.68109652099609 Q 92.6670310546875 100.8814965209961 92.4332310546875 100.8814965209961 Z M 92.2829310546875 100.51409652099609 Q 93.2515310546875 100.51409652099609 94.9215310546875 98.3931965209961 L 96.6917310546875 95.95499652099609 Q 96.5581310546875 95.72119652099609 96.2575310546875 95.72119652099609 Q 95.2388310546875 95.72119652099609 93.5020310546875 97.35779652099609 Q 91.6984310546875 99.02779652099609 91.8821310546875 100.11329652099609 Q 91.9656310546875 100.51409652099609 92.2829310546875 100.51409652099609 Z M 99.23162802734375 100.8981965209961 Q 98.69722802734375 100.8981965209961 98.38827802734374 100.6393465209961 Q 98.07932802734375 100.38049652099609 98.07932802734375 99.7124965209961 Q 98.07932802734375 99.3283965209961 98.31312802734375 98.7355465209961 Q 98.54692802734375 98.1426965209961 98.89762802734376 97.45799652099609 Q 99.24832802734375 96.7732965209961 99.59902802734375 96.10529652099609 Q 99.38192802734375 96.15539652099609 99.21492802734375 96.15539652099609 Q 98.71392802734375 96.15539652099609 98.71392802734375 95.77129652099609 Q 98.71392802734375 95.5875965209961 98.85587802734375 95.4873965209961 Q 98.99782802734374 95.3871965209961 99.11472802734374 95.3704965209961 Q 99.11472802734374 95.3704965209961 99.15647802734375 95.3704965209961 Q 99.19822802734375 95.3704965209961 99.26502802734375 95.3537965209961 L 100.23362802734376 95.3537965209961 Q 100.53422802734374 94.9696965209961 100.85152802734375 94.53549652099609 Q 101.30242802734375 93.9676965209961 101.56962802734375 93.8674965209961 L 101.61972802734375 93.8674965209961 Q 101.73662802734376 93.8674965209961 101.95372802734374 93.9843965209961 Q 102.22092802734375 94.1346965209961 102.22092802734375 94.28499652099609 Q 102.22092802734375 94.50209652099609 101.41932802734375 95.4038965209961 Q 101.56962802734375 95.4205965209961 101.85352802734376 95.4205965209961 Q 102.13742802734374 95.4205965209961 102.55492802734375 95.4205965209961 Q 102.75532802734375 95.4205965209961 103.13107802734375 95.4205965209961 Q 103.50682802734374 95.4205965209961 103.91597802734375 95.41224652099609 Q 104.32512802734375 95.4038965209961 104.62572802734375 95.39554652099609 Q 104.92632802734374 95.3871965209961 104.95972802734374 95.3871965209961 Q 105.00982802734374 95.4038965209961 105.00982802734374 95.4372965209961 Q 105.00982802734374 95.5875965209961 103.03922802734375 95.83809652099609 Q 101.92032802734374 95.98839652099609 101.32747802734374 96.07189652099609 Q 100.73462802734375 96.15539652099609 100.68452802734375 96.17209652099609 Q 100.45072802734374 96.3724965209961 100.11672802734375 96.8567965209961 Q 99.78272802734375 97.34109652099609 99.44872802734375 97.9422965209961 Q 99.11472802734374 98.5434965209961 98.88927802734375 99.0862465209961 Q 98.66382802734375 99.6289965209961 98.66382802734375 99.9295965209961 Q 98.66382802734375 100.19679652099609 98.86422802734376 100.3721465209961 Q 99.06462802734374 100.54749652099609 99.51552802734375 100.54749652099609 Q 99.81612802734375 100.54749652099609 100.23362802734376 100.41389652099609 Q 100.65112802734374 100.28029652099609 101.02687802734376 100.1049465209961 Q 101.40262802734375 99.9295965209961 101.56962802734375 99.8293965209961 Q 102.00382802734374 99.5621965209961 102.52987802734376 99.1196465209961 Q 103.05592802734375 98.67709652099609 103.57362802734374 98.1092965209961 Q 103.80742802734375 97.8754965209961 103.89092802734375 97.8754965209961 Q 103.94102802734375 97.8754965209961 103.94102802734375 97.9422965209961 Q 103.94102802734375 98.0758965209961 103.69052802734375 98.3764965209961 Q 103.28972802734376 98.86079652099609 102.79707802734374 99.30334652099609 Q 102.30442802734375 99.7458965209961 101.70322802734376 100.11329652099609 Q 101.01852802734375 100.53079652099609 100.39227802734375 100.7144965209961 Q 99.76602802734375 100.8981965209961 99.23162802734375 100.8981965209961 Z M 104.00380723876953 101.0150965209961 Q 103.46940723876953 101.0150965209961 103.03520723876953 100.6727465209961 Q 102.60100723876953 100.33039652099609 102.60100723876953 99.7625965209961 Q 102.60100723876953 98.57689652099609 104.05390723876953 97.05719652099609 Q 105.54020723876953 95.5207965209961 106.70920723876954 95.5207965209961 Q 107.09330723876953 95.5207965209961 107.33545723876954 95.7295465209961 Q 107.57760723876953 95.93829652099609 107.57760723876953 96.2388965209961 Q 107.57760723876953 97.17409652099609 106.09130723876953 98.0758965209961 Q 104.77200723876953 98.87749652099609 103.87020723876954 98.87749652099609 Q 103.73660723876954 98.87749652099609 103.63640723876954 98.84409652099609 Q 103.38590723876953 99.2949965209961 103.38590723876953 99.7959965209961 Q 103.38590723876953 100.66439652099609 104.20420723876953 100.66439652099609 Q 105.03920723876954 100.66439652099609 106.35850723876953 99.5454965209961 Q 107.37720723876953 98.72719652099609 108.09530723876954 97.8086965209961 Q 108.24560723876954 97.60829652099609 108.36250723876952 97.60829652099609 Q 108.46270723876953 97.60829652099609 108.46270723876953 97.70849652099609 Q 108.46270723876953 97.8086965209961 108.32910723876952 97.9923965209961 Q 107.86150723876953 98.61029652099609 107.32710723876953 99.12799652099609 Q 106.79270723876954 99.6456965209961 106.17480723876953 100.07989652099609 Q 104.88890723876953 101.0150965209961 104.00380723876953 101.0150965209961 Z M 104.10400723876953 98.5100965209961 Q 104.73860723876953 98.5100965209961 105.75730723876953 97.8754965209961 Q 106.09130723876953 97.64169652099609 106.41695723876953 97.3494465209961 Q 106.74260723876954 97.05719652099609 106.95135723876953 96.7565965209961 Q 107.16010723876953 96.4559965209961 107.16010723876953 96.22219652099609 Q 107.16010723876953 96.00509652099609 106.80940723876954 96.00509652099609 Q 106.30840723876953 96.00509652099609 105.40660723876952 96.7565965209961 Q 104.97240723876953 97.12399652099609 104.57160723876953 97.55819652099609 Q 104.17080723876953 97.9923965209961 103.88690723876954 98.4766965209961 Q 103.98710723876952 98.5100965209961 104.10400723876953 98.5100965209961 Z" transform="matrix(1.0519729852676392, 0, 0, 1, -5.713517189025879, -1.528048038482666)" style="fill: rgb(51, 51, 51); white-space: pre;"/>
  <path d="M 51.713297039794924 102.3844965209961 Q 51.028597039794924 102.3844965209961 50.00989703979492 101.56619652099609 Q 49.29179703979492 101.4492965209961 48.782447039794924 101.25724652099609 Q 48.27309703979492 101.0651965209961 47.93909703979492 100.7979965209961 Q 47.47149703979492 100.39719652099609 47.12079703979492 99.7291965209961 Q 46.77009703979492 99.06119652099609 46.77009703979492 98.4432965209961 Q 46.77009703979492 97.9756965209961 46.98719703979492 97.60829652099609 Q 47.48819703979492 96.7231965209961 48.25639703979492 96.7231965209961 Q 48.840897039794925 96.7231965209961 48.94109703979492 97.70849652099609 Q 49.05799703979492 98.62699652099609 49.13314703979492 99.1697465209961 Q 49.20829703979492 99.7124965209961 49.25839703979492 99.8794965209961 Q 49.508897039794924 100.69779652099609 50.11009703979492 101.2655965209961 Q 50.81149703979492 101.4158965209961 51.62979703979492 101.4158965209961 Q 53.43339703979492 101.4158965209961 55.08669703979492 100.7311965209961 Q 55.78809703979492 100.43059652099609 56.45609703979492 99.9462965209961 Q 57.12409703979492 99.4619965209961 57.55829703979492 98.87749652099609 Q 57.99249703979492 98.2929965209961 57.99249703979492 97.7418965209961 Q 57.99249703979492 96.9569965209961 56.60639703979492 96.5227965209961 L 53.66719703979492 95.85479652099609 Q 52.76539703979492 95.65439652099609 52.22264703979492 95.14504652099609 Q 51.67989703979492 94.63569652099609 51.67989703979492 93.9843965209961 Q 51.67989703979492 92.98239652099609 52.93239703979492 91.9803965209961 Q 53.56699703979492 91.46269652099609 54.41869703979492 91.1036465209961 Q 55.27039703979492 90.7445965209961 56.213947039794924 90.55254652099609 Q 57.15749703979492 90.3604965209961 58.02589703979492 90.3604965209961 Q 59.261697039794925 90.3604965209961 60.138447039794926 90.7445965209961 Q 61.01519703979492 91.1286965209961 61.23229703979492 91.8634965209961 Q 61.28239703979492 92.0304965209961 61.28239703979492 92.2308965209961 Q 61.28239703979492 93.24959652099609 60.26369703979492 93.6503965209961 Q 59.64579703979492 93.9008965209961 59.211597039794924 93.9008965209961 Q 58.94439703979492 93.9008965209961 58.79409703979492 93.8006965209961 Q 58.76069703979492 93.7672965209961 58.76069703979492 93.7171965209961 Q 58.76069703979492 93.6002965209961 59.228297039794924 93.5835965209961 Q 59.51219703979492 93.5668965209961 59.69589703979492 93.5334965209961 Q 59.87959703979492 93.5000965209961 59.963097039794924 93.4666965209961 Q 60.59769703979492 93.13269652099609 60.59769703979492 92.4813965209961 Q 60.59769703979492 92.1473965209961 60.41399703979492 91.7799965209961 Q 59.89629703979492 90.8280965209961 57.825497039794925 90.8280965209961 Q 57.07399703979492 90.8280965209961 56.272397039794924 90.98674652099609 Q 55.470797039794924 91.14539652099609 54.752697039794924 91.4543465209961 Q 54.034597039794924 91.7632965209961 53.53359703979492 92.2308965209961 Q 52.66519703979492 93.03249652099609 52.66519703979492 93.6670965209961 Q 52.66519703979492 94.15139652099609 53.14114703979492 94.5271465209961 Q 53.61709703979492 94.9028965209961 54.58569703979492 95.0865965209961 L 56.55629703979492 95.4539965209961 Q 57.691897039794924 95.67109652099609 58.39329703979492 96.0969465209961 Q 59.09469703979492 96.5227965209961 59.09469703979492 97.39119652099609 Q 59.09469703979492 98.1593965209961 58.71059703979492 98.82739652099609 Q 58.32649703979492 99.4953965209961 57.683547039794924 100.0214465209961 Q 57.04059703979492 100.54749652099609 56.222297039794924 100.8981965209961 Q 54.36859703979492 101.71649652099609 51.846897039794925 101.71649652099609 Q 51.52959703979492 101.71649652099609 51.21229703979492 101.69979652099609 Q 50.89499703979492 101.68309652099609 50.59439703979492 101.64969652099609 Q 50.82819703979492 101.78329652099609 51.187247039794926 101.91689652099609 Q 51.54629703979492 102.05049652099609 52.01389703979492 102.16739652099609 Q 52.06399703979492 102.18409652099609 52.06399703979492 102.2341965209961 Q 52.06399703979492 102.3844965209961 51.713297039794924 102.3844965209961 Z M 49.508897039794924 101.0985965209961 Q 49.05799703979492 100.59759652099609 48.807497039794924 100.06319652099609 Q 48.44009703979492 99.2281965209961 48.25639703979492 98.0090965209961 Q 48.122797039794925 97.12399652099609 47.97249703979492 97.12399652099609 Q 47.83889703979492 97.12399652099609 47.61344703979492 97.32439652099609 Q 47.387997039794925 97.52479652099609 47.387997039794925 98.1760965209961 Q 47.387997039794925 99.4452965209961 48.28979703979492 100.38049652099609 Q 48.740697039794924 100.8480965209961 49.508897039794924 101.0985965209961 Z M 60.57281073608399 100.8981965209961 Q 60.03841073608398 100.8981965209961 59.729460736083986 100.6393465209961 Q 59.42051073608398 100.38049652099609 59.42051073608398 99.7124965209961 Q 59.42051073608398 99.3283965209961 59.654310736083985 98.7355465209961 Q 59.88811073608399 98.1426965209961 60.238810736083984 97.45799652099609 Q 60.58951073608399 96.7732965209961 60.94021073608398 96.10529652099609 Q 60.72311073608398 96.15539652099609 60.55611073608399 96.15539652099609 Q 60.05511073608398 96.15539652099609 60.05511073608398 95.77129652099609 Q 60.05511073608398 95.5875965209961 60.197060736083984 95.4873965209961 Q 60.339010736083985 95.3871965209961 60.455910736083986 95.3704965209961 Q 60.455910736083986 95.3704965209961 60.497660736083986 95.3704965209961 Q 60.53941073608399 95.3704965209961 60.60621073608399 95.3537965209961 L 61.57481073608398 95.3537965209961 Q 61.875410736083985 94.9696965209961 62.19271073608398 94.53549652099609 Q 62.643610736083986 93.9676965209961 62.91081073608398 93.8674965209961 L 62.96091073608398 93.8674965209961 Q 63.07781073608398 93.8674965209961 63.294910736083985 93.9843965209961 Q 63.56211073608399 94.1346965209961 63.56211073608399 94.28499652099609 Q 63.56211073608399 94.50209652099609 62.76051073608399 95.4038965209961 Q 62.91081073608398 95.4205965209961 63.194710736083984 95.4205965209961 Q 63.478610736083986 95.4205965209961 63.89611073608398 95.4205965209961 Q 64.09651073608399 95.4205965209961 64.47226073608398 95.4205965209961 Q 64.84801073608398 95.4205965209961 65.25716073608399 95.41224652099609 Q 65.66631073608399 95.4038965209961 65.96691073608399 95.39554652099609 Q 66.26751073608398 95.3871965209961 66.30091073608398 95.3871965209961 Q 66.35101073608398 95.4038965209961 66.35101073608398 95.4372965209961 Q 66.35101073608398 95.5875965209961 64.38041073608399 95.83809652099609 Q 63.261510736083984 95.98839652099609 62.668660736083986 96.07189652099609 Q 62.07581073608399 96.15539652099609 62.02571073608399 96.17209652099609 Q 61.791910736083985 96.3724965209961 61.45791073608398 96.8567965209961 Q 61.123910736083985 97.34109652099609 60.78991073608398 97.9422965209961 Q 60.455910736083986 98.5434965209961 60.230460736083984 99.0862465209961 Q 60.00501073608398 99.6289965209961 60.00501073608398 99.9295965209961 Q 60.00501073608398 100.19679652099609 60.205410736083984 100.3721465209961 Q 60.405810736083986 100.54749652099609 60.85671073608398 100.54749652099609 Q 61.157310736083986 100.54749652099609 61.57481073608398 100.41389652099609 Q 61.99231073608399 100.28029652099609 62.36806073608398 100.1049465209961 Q 62.74381073608399 99.9295965209961 62.91081073608398 99.8293965209961 Q 63.345010736083985 99.5621965209961 63.87106073608398 99.1196465209961 Q 64.39711073608399 98.67709652099609 64.91481073608398 98.1092965209961 Q 65.14861073608398 97.8754965209961 65.23211073608398 97.8754965209961 Q 65.28221073608398 97.8754965209961 65.28221073608398 97.9422965209961 Q 65.28221073608398 98.0758965209961 65.03171073608398 98.3764965209961 Q 64.63091073608399 98.86079652099609 64.13826073608398 99.30334652099609 Q 63.64561073608398 99.7458965209961 63.04441073608398 100.11329652099609 Q 62.35971073608398 100.53079652099609 61.733460736083984 100.7144965209961 Q 61.107210736083985 100.8981965209961 60.57281073608399 100.8981965209961 Z M 65.61188095703125 100.8814965209961 Q 65.21108095703126 100.8814965209961 64.81028095703125 100.59759652099609 Q 64.40948095703125 100.31369652099609 64.35938095703125 99.9295965209961 Q 64.19238095703125 98.64369652099609 65.97928095703125 96.8734965209961 Q 67.74948095703125 95.1032965209961 69.16898095703125 95.1032965209961 Q 69.55308095703126 95.1032965209961 69.77018095703124 95.2869965209961 Q 69.88708095703124 95.4038965209961 69.94553095703125 95.60429652099609 Q 70.00398095703125 95.80469652099609 70.03738095703125 95.80469652099609 Q 70.10418095703125 95.80469652099609 70.15428095703125 95.7796465209961 Q 70.20438095703125 95.75459652099609 70.27118095703125 95.75459652099609 Q 70.47158095703125 95.75459652099609 70.62188095703125 95.90489652099609 Q 70.77218095703125 96.05519652099609 70.78888095703125 96.17209652099609 Q 70.80558095703125 96.20549652099609 69.72008095703126 97.8253965209961 Q 68.63458095703125 99.4118965209961 68.73478095703125 99.9796965209961 Q 68.81828095703125 100.36379652099609 69.10218095703125 100.36379652099609 Q 69.97058095703125 100.36379652099609 72.27518095703125 97.49139652099609 Q 72.32528095703125 97.42459652099609 72.37538095703125 97.42459652099609 Q 72.45888095703125 97.42459652099609 72.45888095703125 97.54149652099609 Q 72.45888095703125 97.67509652099609 72.30858095703125 97.8754965209961 Q 70.18768095703125 100.7311965209961 69.05208095703125 100.7311965209961 Q 68.90178095703125 100.7311965209961 68.76818095703125 100.68109652099609 Q 68.03338095703126 100.39719652099609 68.03338095703126 99.5788965209961 Q 68.03338095703126 99.2949965209961 68.10018095703126 99.01109652099609 L 67.06478095703125 100.0130965209961 Q 66.59718095703126 100.48069652099609 66.22143095703125 100.68109652099609 Q 65.84568095703125 100.8814965209961 65.61188095703125 100.8814965209961 Z M 65.46158095703125 100.51409652099609 Q 66.43018095703125 100.51409652099609 68.10018095703126 98.3931965209961 L 69.87038095703124 95.95499652099609 Q 69.73678095703124 95.72119652099609 69.43618095703125 95.72119652099609 Q 68.41748095703124 95.72119652099609 66.68068095703126 97.35779652099609 Q 64.87708095703125 99.02779652099609 65.06078095703126 100.11329652099609 Q 65.14428095703126 100.51409652099609 65.46158095703125 100.51409652099609 Z M 75.63887872314453 100.8313965209961 Q 75.18797872314452 100.8313965209961 75.00427872314454 100.5725465209961 Q 74.82057872314454 100.31369652099609 74.82057872314454 99.9295965209961 Q 74.82057872314454 98.96099652099609 75.48857872314453 97.8587965209961 L 76.55737872314452 96.12199652099609 Q 75.42177872314453 96.9569965209961 74.30287872314453 98.2094965209961 Q 74.00227872314453 98.5434965209961 73.62652872314453 98.99439652099609 Q 73.25077872314453 99.4452965209961 72.79987872314453 100.0297965209961 Q 72.19867872314452 100.8146965209961 72.08177872314454 100.8146965209961 Q 71.84797872314454 100.8146965209961 71.69767872314453 100.6059465209961 Q 71.54737872314453 100.39719652099609 71.54737872314453 100.23019652099609 Q 71.54737872314453 100.09659652099609 71.63087872314453 99.73754652099609 Q 71.71437872314453 99.3784965209961 71.83127872314454 99.11129652099609 Q 71.94817872314454 98.82739652099609 72.07342872314453 98.5518465209961 Q 72.19867872314452 98.2762965209961 72.31557872314453 98.0090965209961 L 71.31357872314453 99.06119652099609 Q 71.28017872314453 99.09459652099609 71.11317872314453 99.2615965209961 Q 70.94617872314453 99.4285965209961 70.84597872314453 99.4285965209961 Q 70.76247872314453 99.4285965209961 70.76247872314453 99.3116965209961 Q 70.76247872314453 99.2782965209961 70.78752872314453 99.2198465209961 Q 70.81257872314453 99.16139652099609 70.89607872314453 99.07789652099609 Q 71.14657872314453 98.82739652099609 71.41377872314453 98.5434965209961 Q 71.68097872314453 98.2595965209961 71.96487872314454 97.8921965209961 Q 72.11517872314454 97.70849652099609 72.41577872314453 97.3327465209961 Q 72.71637872314453 96.9569965209961 73.07542872314453 96.5227965209961 Q 73.43447872314454 96.08859652099609 73.75177872314453 95.72119652099609 Q 73.83527872314453 95.60429652099609 73.93547872314453 95.5625465209961 Q 74.03567872314453 95.5207965209961 74.06907872314453 95.5207965209961 Q 74.51997872314453 95.5207965209961 74.51997872314453 95.87149652099609 Q 74.51997872314453 95.97169652099609 74.46987872314453 96.07189652099609 Q 72.96687872314453 98.1426965209961 72.66627872314453 99.2281965209961 Q 74.60347872314453 97.29099652099609 75.78082872314454 96.3140465209961 Q 76.95817872314453 95.3370965209961 77.45917872314453 95.3370965209961 Q 77.72637872314453 95.3370965209961 77.86832872314453 95.4205965209961 Q 78.01027872314454 95.5040965209961 78.01027872314454 95.73789652099609 Q 78.01027872314454 95.82139652099609 77.99357872314454 95.87149652099609 Q 77.94347872314454 95.98839652099609 77.30887872314453 96.8066965209961 Q 76.92477872314453 97.27429652099609 76.63252872314453 97.65839652099609 Q 76.34027872314454 98.0424965209961 76.15657872314453 98.3263965209961 Q 75.85597872314453 98.79399652099609 75.70567872314453 99.2031465209961 Q 75.55537872314453 99.6122965209961 75.55537872314453 99.8961965209961 Q 75.55537872314453 100.0130965209961 75.58877872314453 100.18009652099609 Q 75.62217872314453 100.34709652099609 75.78917872314453 100.34709652099609 Q 76.17327872314453 100.34709652099609 76.99157872314453 99.6790965209961 Q 77.37567872314453 99.3450965209961 77.70967872314453 99.0027465209961 Q 78.04367872314452 98.66039652099609 78.34427872314453 98.3263965209961 Q 78.41107872314453 98.2595965209961 78.56137872314453 98.06754652099609 Q 78.71167872314453 97.8754965209961 78.74507872314453 97.8754965209961 Q 78.81187872314453 97.8754965209961 78.81187872314453 98.0090965209961 Q 78.81187872314453 98.0758965209961 78.73672872314454 98.23454652099609 Q 78.66157872314453 98.3931965209961 78.57807872314453 98.4766965209961 Q 78.39437872314453 98.69379652099609 78.03532872314453 99.07789652099609 Q 77.67627872314453 99.4619965209961 77.23372872314454 99.8627965209961 Q 76.79117872314453 100.26359652099609 76.37367872314454 100.54749652099609 Q 75.95617872314453 100.8313965209961 75.63887872314453 100.8313965209961 Z M 79.22919052734375 100.8814965209961 Q 78.72819052734376 100.8814965209961 78.37749052734375 100.6059465209961 Q 78.02679052734375 100.33039652099609 77.97669052734375 99.9295965209961 Q 77.90989052734375 99.3951965209961 78.13534052734374 98.8524465209961 Q 78.36079052734375 98.3096965209961 78.75324052734375 97.8086965209961 Q 79.14569052734375 97.30769652099609 79.59659052734375 96.8734965209961 Q 81.36679052734375 95.1032965209961 82.78629052734375 95.1032965209961 Q 83.27059052734376 95.1032965209961 83.43759052734374 95.3537965209961 Q 83.50439052734374 95.4372965209961 83.58789052734375 95.73789652099609 Q 85.45829052734375 92.69849652099609 86.19309052734376 92.69849652099609 Q 86.36009052734374 92.69849652099609 86.54379052734375 92.78199652099609 Q 86.72749052734375 92.86549652099609 86.72749052734375 92.99909652099609 Q 86.72749052734375 93.08259652099609 86.64399052734375 93.21619652099609 Q 86.14299052734376 93.8340965209961 85.64199052734375 94.4436465209961 Q 85.14099052734375 95.0531965209961 84.65669052734376 95.67109652099609 Q 83.83839052734375 96.7064965209961 83.33739052734376 97.47469652099609 Q 82.83639052734375 98.2428965209961 82.61929052734375 98.77729652099609 Q 82.55249052734375 98.94429652099609 82.49404052734376 99.1864465209961 Q 82.43559052734375 99.4285965209961 82.43559052734375 99.6790965209961 Q 82.43559052734375 99.9963965209961 82.56919052734375 100.23019652099609 Q 82.70279052734375 100.46399652099609 83.05349052734375 100.46399652099609 Q 83.60459052734375 100.46399652099609 84.40619052734375 99.9295965209961 Q 85.20779052734375 99.3951965209961 86.27659052734376 98.1760965209961 Q 86.34339052734376 98.1092965209961 86.40184052734375 98.0591965209961 Q 86.46029052734374 98.0090965209961 86.52709052734374 97.9923965209961 Q 86.67739052734375 97.9589965209961 86.67739052734375 98.0591965209961 Q 86.67739052734375 98.1092965209961 86.57719052734375 98.2428965209961 Q 86.05949052734375 98.86079652099609 85.42489052734375 99.4619965209961 Q 84.79029052734376 100.06319652099609 84.13064052734374 100.4556465209961 Q 83.47099052734374 100.8480965209961 82.90319052734375 100.8480965209961 Q 82.33539052734375 100.8480965209961 82.10159052734375 100.46399652099609 Q 81.86779052734374 100.07989652099609 81.86779052734374 99.5955965209961 Q 81.86779052734374 99.09459652099609 82.05149052734374 98.67709652099609 L 80.69879052734375 100.0297965209961 Q 80.24789052734376 100.48069652099609 79.87214052734375 100.68109652099609 Q 79.49639052734375 100.8814965209961 79.22919052734375 100.8814965209961 Z M 79.07889052734375 100.51409652099609 Q 79.79699052734375 100.51409652099609 81.46699052734375 98.5434965209961 Q 81.55049052734375 98.4432965209961 82.05149052734374 97.8003465209961 Q 82.55249052734375 97.15739652099609 83.47099052734374 95.92159652099609 Q 83.35409052734374 95.72119652099609 83.07019052734375 95.72119652099609 Q 82.03479052734374 95.72119652099609 80.29799052734376 97.35779652099609 Q 78.66139052734376 98.87749652099609 78.66139052734376 99.9128965209961 Q 78.66139052734376 100.51409652099609 79.07889052734375 100.51409652099609 Z M 87.0195118774414 100.8814965209961 Q 86.61871187744141 100.8814965209961 86.21791187744141 100.59759652099609 Q 85.8171118774414 100.31369652099609 85.7670118774414 99.9295965209961 Q 85.6000118774414 98.64369652099609 87.3869118774414 96.8734965209961 Q 89.15711187744141 95.1032965209961 90.57661187744141 95.1032965209961 Q 90.96071187744141 95.1032965209961 91.1778118774414 95.2869965209961 Q 91.2947118774414 95.4038965209961 91.35316187744141 95.60429652099609 Q 91.4116118774414 95.80469652099609 91.4450118774414 95.80469652099609 Q 91.5118118774414 95.80469652099609 91.5619118774414 95.7796465209961 Q 91.6120118774414 95.75459652099609 91.6788118774414 95.75459652099609 Q 91.8792118774414 95.75459652099609 92.02951187744141 95.90489652099609 Q 92.17981187744141 96.05519652099609 92.19651187744141 96.17209652099609 Q 92.21321187744141 96.20549652099609 91.12771187744141 97.8253965209961 Q 90.0422118774414 99.4118965209961 90.1424118774414 99.9796965209961 Q 90.2259118774414 100.36379652099609 90.50981187744141 100.36379652099609 Q 91.3782118774414 100.36379652099609 93.68281187744141 97.49139652099609 Q 93.73291187744141 97.42459652099609 93.78301187744141 97.42459652099609 Q 93.86651187744141 97.42459652099609 93.86651187744141 97.54149652099609 Q 93.86651187744141 97.67509652099609 93.71621187744141 97.8754965209961 Q 91.5953118774414 100.7311965209961 90.4597118774414 100.7311965209961 Q 90.3094118774414 100.7311965209961 90.1758118774414 100.68109652099609 Q 89.44101187744141 100.39719652099609 89.44101187744141 99.5788965209961 Q 89.44101187744141 99.2949965209961 89.50781187744141 99.01109652099609 L 88.4724118774414 100.0130965209961 Q 88.00481187744141 100.48069652099609 87.6290618774414 100.68109652099609 Q 87.2533118774414 100.8814965209961 87.0195118774414 100.8814965209961 Z M 86.8692118774414 100.51409652099609 Q 87.83781187744141 100.51409652099609 89.50781187744141 98.3931965209961 L 91.2780118774414 95.95499652099609 Q 91.1444118774414 95.72119652099609 90.84381187744141 95.72119652099609 Q 89.8251118774414 95.72119652099609 88.08831187744141 97.35779652099609 Q 86.28471187744141 99.02779652099609 86.46841187744141 100.11329652099609 Q 86.55191187744141 100.51409652099609 86.8692118774414 100.51409652099609 Z M 96.19481727294922 100.8814965209961 Q 95.47671727294922 100.8814965209961 95.20951727294921 100.5057465209961 Q 94.94231727294923 100.12999652099609 94.94231727294923 99.4953965209961 Q 94.94231727294923 98.79399652099609 95.37651727294921 97.8253965209961 Q 95.54351727294922 97.44129652099609 95.72721727294922 97.1323465209961 Q 95.91091727294922 96.8233965209961 96.11131727294922 96.5561965209961 Q 96.04451727294922 96.5728965209961 95.99441727294922 96.5728965209961 Q 95.94431727294922 96.5728965209961 95.89421727294922 96.5728965209961 Q 95.49341727294922 96.5728965209961 95.22621727294921 96.00509652099609 L 93.99041727294922 97.60829652099609 Q 93.00511727294922 98.89419652099609 92.78801727294922 98.89419652099609 Q 92.70451727294922 98.89419652099609 92.70451727294922 98.82739652099609 Q 92.70451727294922 98.74389652099609 92.78801727294922 98.61029652099609 Q 92.83811727294922 98.5100965209961 92.98841727294922 98.3430965209961 Q 93.62301727294921 97.60829652099609 94.15741727294922 96.8901965209961 Q 94.69181727294922 96.17209652099609 95.04251727294921 95.4873965209961 Q 95.42661727294922 94.0344965209961 96.01111727294922 94.0344965209961 Q 96.39521727294922 94.0344965209961 96.39521727294922 94.38519652099609 Q 96.39521727294922 94.70249652099609 95.97771727294922 95.2201965209961 Q 95.57691727294922 95.73789652099609 95.57691727294922 95.75459652099609 Q 95.57691727294922 96.10529652099609 96.09461727294922 96.10529652099609 Q 96.39521727294922 96.10529652099609 96.76261727294921 95.88819652099609 L 97.19681727294922 95.6209965209961 Q 97.23021727294922 95.60429652099609 97.29701727294922 95.60429652099609 Q 97.49741727294922 95.60429652099609 97.64771727294922 95.77129652099609 Q 97.79801727294922 95.93829652099609 97.74791727294922 96.07189652099609 L 96.59561727294921 97.52479652099609 Q 95.52681727294922 98.89419652099609 95.52681727294922 99.7291965209961 Q 95.52681727294922 100.48069652099609 96.26161727294922 100.48069652099609 Q 96.76261727294921 100.48069652099609 97.33876727294921 100.18009652099609 Q 97.91491727294922 99.8794965209961 98.45766727294922 99.43694652099609 Q 99.00041727294922 98.99439652099609 99.36781727294922 98.57689652099609 L 99.76861727294921 98.1092965209961 Q 99.80201727294921 98.0758965209961 99.85211727294922 98.0257965209961 Q 99.90221727294922 97.9756965209961 99.93561727294922 97.9756965209961 Q 100.05251727294922 97.9756965209961 100.05251727294922 98.0925965209961 Q 100.05251727294922 98.1259965209961 100.01911727294922 98.2094965209961 Q 99.98571727294922 98.2929965209961 99.90221727294922 98.3931965209961 L 99.36781727294922 98.99439652099609 Q 98.98371727294922 99.4285965209961 98.42426727294922 99.87114652099609 Q 97.86481727294922 100.31369652099609 97.27196727294921 100.59759652099609 Q 96.67911727294921 100.8814965209961 96.19481727294922 100.8814965209961 Z M 100.47934311523437 100.8814965209961 Q 99.97834311523438 100.8814965209961 99.62764311523438 100.6059465209961 Q 99.27694311523437 100.33039652099609 99.22684311523437 99.9295965209961 Q 99.16004311523437 99.3951965209961 99.38549311523437 98.8524465209961 Q 99.61094311523438 98.3096965209961 100.00339311523437 97.8086965209961 Q 100.39584311523437 97.30769652099609 100.84674311523437 96.8734965209961 Q 102.61694311523438 95.1032965209961 104.03644311523438 95.1032965209961 Q 104.52074311523438 95.1032965209961 104.68774311523437 95.3537965209961 Q 104.75454311523437 95.4372965209961 104.83804311523437 95.73789652099609 Q 106.70844311523437 92.69849652099609 107.44324311523438 92.69849652099609 Q 107.61024311523437 92.69849652099609 107.79394311523437 92.78199652099609 Q 107.97764311523437 92.86549652099609 107.97764311523437 92.99909652099609 Q 107.97764311523437 93.08259652099609 107.89414311523437 93.21619652099609 Q 107.39314311523438 93.8340965209961 106.89214311523438 94.4436465209961 Q 106.39114311523437 95.0531965209961 105.90684311523438 95.67109652099609 Q 105.08854311523437 96.7064965209961 104.58754311523438 97.47469652099609 Q 104.08654311523438 98.2428965209961 103.86944311523438 98.77729652099609 Q 103.80264311523437 98.94429652099609 103.74419311523438 99.1864465209961 Q 103.68574311523437 99.4285965209961 103.68574311523437 99.6790965209961 Q 103.68574311523437 99.9963965209961 103.81934311523437 100.23019652099609 Q 103.95294311523438 100.46399652099609 104.30364311523438 100.46399652099609 Q 104.85474311523437 100.46399652099609 105.65634311523438 99.9295965209961 Q 106.45794311523437 99.3951965209961 107.52674311523438 98.1760965209961 Q 107.59354311523438 98.1092965209961 107.65199311523438 98.0591965209961 Q 107.71044311523437 98.0090965209961 107.77724311523437 97.9923965209961 Q 107.92754311523437 97.9589965209961 107.92754311523437 98.0591965209961 Q 107.92754311523437 98.1092965209961 107.82734311523437 98.2428965209961 Q 107.30964311523438 98.86079652099609 106.67504311523437 99.4619965209961 Q 106.04044311523438 100.06319652099609 105.38079311523437 100.4556465209961 Q 104.72114311523437 100.8480965209961 104.15334311523438 100.8480965209961 Q 103.58554311523437 100.8480965209961 103.35174311523437 100.46399652099609 Q 103.11794311523437 100.07989652099609 103.11794311523437 99.5955965209961 Q 103.11794311523437 99.09459652099609 103.30164311523437 98.67709652099609 L 101.94894311523437 100.0297965209961 Q 101.49804311523438 100.48069652099609 101.12229311523437 100.68109652099609 Q 100.74654311523437 100.8814965209961 100.47934311523437 100.8814965209961 Z M 100.32904311523437 100.51409652099609 Q 101.04714311523438 100.51409652099609 102.71714311523438 98.5434965209961 Q 102.80064311523438 98.4432965209961 103.30164311523437 97.8003465209961 Q 103.80264311523437 97.15739652099609 104.72114311523437 95.92159652099609 Q 104.60424311523437 95.72119652099609 104.32034311523438 95.72119652099609 Q 103.28494311523437 95.72119652099609 101.54814311523438 97.35779652099609 Q 99.91154311523438 98.87749652099609 99.91154311523438 99.9128965209961 Q 99.91154311523438 100.51409652099609 100.32904311523437 100.51409652099609 Z" transform="matrix(0.5661369562149048, 0, 0, 0.8871590495109558, 20.691112518310547, 29.341739654541016)" style="fill: rgb(73, 109, 229); white-space: pre;"/>
  <path transform="matrix(0.5661369562149048, 0, 0, 0.8871590495109558, 20.691112518310547, 29.341739654541016)" style="fill: rgb(73, 109, 229); white-space: pre;"/>
</svg>